<svg version="1.0" xmlns="http://www.w3.org/2000/svg" width="682.667" height="682.667" viewBox="0 0 512 512"><path d="M457.1 5.5c-6.3 1.4-11.6 2.6-11.7 2.8-.2.2 6.5 7.1 14.9 15.5L475.5 39l6-1.1c3.3-.7 6.1-1.3 6.3-1.4.7-.5-5-25.2-6.3-27.2-4.1-6.2-9.2-7-24.4-3.8zM390.7 18.8c-7 1.4-12.6 3-12.5 3.4.2.4 6.9 7.4 15.1 15.6L408 52.7l15.5-3.1c8.5-1.7 15.5-3.3 15.5-3.7 0-.3-6.7-7.2-14.9-15.2-12.5-12.2-15.5-14.7-17.8-14.6-1.5.1-8.5 1.3-15.6 2.7zM326 32c-6.9 1.4-13.1 2.8-13.8 3.1-.7.2 5.5 7.1 14.2 15.8l15.4 15.3 13.8-2.7c7.7-1.6 14.5-3.1 15.2-3.4 1.5-.8-28.8-31.2-30.9-31-.8.1-7 1.4-13.9 2.9zM260.6 45.1c-7.7 1.6-14.1 3-14.2 3.2-.2.2 6.6 7.2 15 15.6l15.3 15.2 14.1-2.7c7.8-1.6 14.2-3.1 14.2-3.4 0-.3-6.9-7.3-15.2-15.6l-15.3-15.1-13.9 2.8zM225 61.5c-1.9.9-3.8 2.1-4.2 2.8-.5.8-1.5.4-3.2-1.3l-2.6-2.3v3.9c0 2.1.3 5.6.6 7.6.6 3.7.8 3.8 4.9 3.8 2.7 0 5.1.7 6.6 1.9 2 1.6 2.4 2.7 2.2 7.3-.1 2.9-.9 7.5-1.7 10.2-1.1 3.6-1.2 5.3-.4 6.3 1.6 2 3.8 1.5 3.8-.9 0-3.4 3.9-10.6 7-12.8 5-3.6 12.2-1.9 19.9 4.5 2.4 2.1 3.6 2.5 5.5 1.8 2.4-.8 2.1-1.2-8.8-14.8C243 65.2 239 61.7 232 60.6c-2.2-.4-4.8 0-7 .9zm8.5 7.6c.4.6-.3 2.1-1.6 3.5-1.7 1.8-2.5 2.1-3.6 1.3-1.7-1.5-1.6-2.4.3-4.3 1.8-1.8 4-2.1 4.9-.5z"/><path d="M273.9 91.6c-1.8 2.9-2 4-1 5.3.6.9 2.2 3.8 3.6 6.6 2.8 5.6 2.3 7.3-3.2 11l-3 2.1 4.3 1.8c2.3.9 5.5 2.9 6.9 4.2 2.2 2.1 2.6 3.1 2.1 5.7-.9 4.3-4.3 7.6-8.7 8.3-4.5.8-5.5 1.3-6.3 4-.6 1.9-.2 2.2 5.5 2.8 3.4.3 49.1.6 101.5.6 62.9 0 95.4.3 95.4 1 0 .6-12.2 1-34.5 1H402v47.5h34.2c26.4 0 34.2.3 34.5 1.2.4 1-9.6 1.3-47.6 1.3H375v38h48c31.3 0 48 .3 48 1s-33.5 1-98.5 1-98.5-.3-98.5-1 17-1 49-1h49v-18h-47.5c-31 0-47.5-.3-47.5-1s16.5-1 47.5-1H372v-18h-46.1c-36.4 0-46-.3-45.7-1.3.4-.9 4.7-1.3 16.1-1.5l15.7-.3V146H281.7l4.7 5c2.6 2.8 5.8 7.4 7.1 10.3 2.1 4.5 2.3 5.8 1.4 9.6-2 8.7-5.6 13.1-10.9 13.1-3.2 0-3.7-.4-4.9-3.5-2.8-7.8-14.3-13.2-25.9-12.2-11.6 1.1-22.3 8.4-25.2 17.3-.6 1.8-2.3 16.5-3.8 32.7l-2.7 29.4-4.5-3.4c-8.5-6.6-26-14.2-36.5-15.8-8.4-1.4-7.7.8-7.4-22.3.3-19.7.2-20.9-1.9-25-4.5-8.5-16.2-14-27.9-12.9-10 1-17.7 5.6-21.5 13.2-2 3.8-2.1 5.2-1.5 28.2.4 18.6.2 24.3-.7 24.3-2.1 0-17.8 8-24.8 12.6-3.6 2.4-10 7.7-14.1 11.7l-7.4 7.2-3.2-36c-1.8-19.8-3.7-38.1-4.2-40.7-5.2-23.3-44.3-28.6-52.5-7.1-1.5 4-1.6 5.5-.6 12.2C20.6 246 49.2 429.4 50 432c.5 2.1 2.1 4.2 3.7 5.2 2 1.3 2.3 1.8 1.1 1.8-1 0-2.4 1-3.2 2.3-1.7 2.6-3.4 15.1-1.7 12.7 1-1.5 6.4-2.3 5.5-.9-.3.5.2.6 1 .3.9-.3 1.4-.9 1.1-1.3-.2-.4.2-.8 1-.8s1.2.4.9.8c-.2.4.1 1.1.7 1.5.8.4.9.3.5-.4s-.2-1.2.5-1.2c.8 0 .7-.5-.2-1.8-1.2-1.5-1.2-1.6.2-.5.9.7 2 .9 2.4.5.5-.4.5-.2.2.4-.3.6 0 1.1.8 1.1s1.2-.4 1-.8c-.3-.4 1.8-.9 4.7-1.1 4.3-.2 5.2 0 5.6 1.5.4 1.4.7 1.6 1.3.6.4-.7.3-1.9-.2-2.5-.7-.8-.6-1.5.2-2 .7-.4.9-.3.5.4-.3.6-.2 1.3.4 1.7.5.3 1-.2 1-1.2 0-1.5.2-1.6 1-.3.9 1.3 1 1.3 1 0s.1-1.3 1 0 1 1.3 1 0 .1-1.3 1 0 1 1.3 1 0c0-1.2.2-1.3.9-.1.5.7.6 2.3.3 3.5-.3 1.1-.1 1.7.4 1.3.5-.4.9-2.2 1-4 .3-4.3 1.3-9 2.2-9.9.4-.4 8.8-.9 18.7-1.1l18-.2-18.7-.3c-17.2-.2-18.8-.4-18.8-2 0-.9-1.4-16.7-3.1-35-1.7-18.3-2.9-33.5-2.6-33.8.2-.3 2.6.9 5.3 2.6 6.5 4.1 18.1 8.5 27.9 10.5 4.4.9 8.2 1.8 8.5 2.1.3.3.9 15.8 1.4 34.4l.9 33.7 4.1-.1c3.7-.2 4.2-.5 4.6-3.2l.6-2.9.7 2.5c.7 2.4.8 2.4 2.2.6.8-1 1.2-2.4.8-3-.3-.6.5-.1 1.9 1.2 1.8 1.6 2.8 2 3.3 1.2s1.1-.8 1.9-.1c1.6 1.3 2.6.4 2-1.7-.2-1 .2-.3 1.1 1.5 1.7 3.7 3.1 4.8 3.3 2.8.1-.8.3-2.2.4-3 .1-.8.5-1.2.9-1 .4.3.5 1.5.2 2.8-.4 2.1-.4 2.1 1.2-.3l1.6-2.5-.5 2.5c-.5 2.4-.4 2.4.9.6.8-1 1.2-2.4.9-3-.3-.6.5 0 1.7 1.4 2.2 2.4 2.2 2.5 1.6.2-.3-1.2-.1-2 .4-1.6.5.3.9 1.1.9 1.9 0 .8.3 1.6.8 1.8.4.3.8-2.3.9-5.6 1.2-38.7 2.4-64.2 3-64.7.4-.4 3.3-1.5 6.3-2.4 8.4-2.6 22.8-9.9 29.8-15l6.2-4.6v2.8c0 1.5-.9 11.9-2 23.2-2.4 25-2.5 26.6-.4 27.4.9.3 4.4-.7 7.9-2.4 3.5-1.6 7-3 7.8-3 1.4 0 1.4-.7-.3-5.6-6.6-19.1-7.5-45.4-2.2-66.3l1.8-6.8-3.7 1.1c-4 1.2-12.1 9.4-13.9 14-.5 1.4-2.1 3.1-3.4 3.6-1.4.5-6.6 3.4-11.6 6.4-20.5 12.4-43.2 17.5-64 14.6-4.7-.7-12.1-1.4-16.6-1.5-4.4-.2-9.6-1-11.6-1.8-5.2-2.2-10.3-7.2-12.8-12.5-1.2-2.6-3.2-5.8-4.5-7.2-3.7-3.9-8.5-15.1-9.6-22.4-1.4-8.9.2-18.8 4.6-28.3 2.6-5.7 3.2-7.9 2.5-9.3-1.4-2.7-1.2-7.6.3-8.9.8-.6 4.2-2 7.8-3.1 4.2-1.3 8.3-3.5 11.9-6.5 12.7-10.5 34.6-19.2 51.3-20.3 27.4-1.9 46.1 3.6 61.3 18 9.5 9.1 13.9 18.2 15.3 31.8.5 5.2 1.4 10.8 2.1 12.4l1.1 2.9 4.2-7.4c8.7-15.3 22.4-30.4 35.8-39.5 7-4.8 7.1-4.9 4-5.2-4.9-.5-3.6-2.2 1.8-2.2 3.4 0 7.1-1 12.4-3.5 17.1-7.7 31.8-10.8 51.7-10.9 19.7 0 34.5 3.1 51.7 10.9l7.5 3.5h35.9c23.3 0 35.9.4 35.9 1s-12.3 1-34.7 1h-34.8l4.4 2.5c5 2.9 15.4 11.1 19 14.9l2.4 2.6h24.6c27.1 0 29.2-.4 33.5-6.3 2.1-2.8 2.1-3.4 1.8-74.1-.3-64.8-.2-71.4 1.3-72.6 3.8-3.1 4.5-6.5 4.5-21V88h-15.5l-11 19-11 19h-17.2c-9.5 0-17.3-.2-17.3-.5s4.1-7.5 9.1-16.2c4.9-8.6 9.7-16.9 10.5-18.5l1.5-2.8h-16.2c-13.9 0-16 .2-15.5 1.5.3.8.1 1.4-.4 1.2-.6-.1-5.6 7.7-11.3 17.3l-10.2 17.5-17.4.3c-15.5.2-17.3.1-16.7-1.3.3-.9 3.9-7.3 8-14.3 4-7 8.5-14.8 9.9-17.5L375 88h-16c-14.4 0-18.6.7-14.7 2.4.6.3.4.4-.7.3-1.4-.1-4.2 3.8-12 17.3l-10.3 17.5-17.6.3-17.6.2 10.4-18.2c5.8-10 10.5-18.6 10.5-19 0-.4-6.9-.8-15.4-.8h-15.4l-2.3 3.6zm6.8-1c-.3.3-1.2.4-1.9.1-.8-.3-.5-.6.6-.6 1.1-.1 1.7.2 1.3.5zm4.6.1c-.7.2-1.9.2-2.5 0-.7-.3-.2-.5 1.2-.5s1.9.2 1.3.5zm4.4-.1c-.3.3-1.2.4-1.9.1-.8-.3-.5-.6.6-.6 1.1-.1 1.7.2 1.3.5zm4 0c-.3.3-1.2.4-1.9.1-.8-.3-.5-.6.6-.6 1.1-.1 1.7.2 1.3.5zm10 0c-.3.3-1.2.4-1.9.1-.8-.3-.5-.6.6-.6 1.1-.1 1.7.2 1.3.5zm45 0c-.3.3-1.2.4-1.9.1-.8-.3-.5-.6.6-.6 1.1-.1 1.7.2 1.3.5zm4 0c-.3.3-1.2.4-1.9.1-.8-.3-.5-.6.6-.6 1.1-.1 1.7.2 1.3.5zm4 0c-.3.3-1.2.4-1.9.1-.8-.3-.5-.6.6-.6 1.1-.1 1.7.2 1.3.5zm4.6.1c-.7.2-1.9.2-2.5 0-.7-.3-.2-.5 1.2-.5s1.9.2 1.3.5zm9 0c-1.3.2-3.5.2-5 0-1.6-.2-.5-.4 2.2-.4 2.8 0 4 .2 2.8.4zm44.4-.1c-.3.3-1.2.4-1.9.1-.8-.3-.5-.6.6-.6 1.1-.1 1.7.2 1.3.5zm4 0c-.3.3-1.2.4-1.9.1-.8-.3-.5-.6.6-.6 1.1-.1 1.7.2 1.3.5zm4 0c-.3.3-1.2.4-1.9.1-.8-.3-.5-.6.6-.6 1.1-.1 1.7.2 1.3.5zm4.6.1c-.7.2-1.9.2-2.5 0-.7-.3-.2-.5 1.2-.5s1.9.2 1.3.5zm5 0c-.7.2-1.9.2-2.5 0-.7-.3-.2-.5 1.2-.5s1.9.2 1.3.5zm4.4-.1c-.3.3-1.2.4-1.9.1-.8-.3-.5-.6.6-.6 1.1-.1 1.7.2 1.3.5zm52.6.1c-1.3.2-3.3.2-4.5 0-1.3-.2-.3-.4 2.2-.4s3.5.2 2.3.4zm-344 354c-.3.7-.6 1.3-.8 1.3-.2 0-.5-.6-.8-1.3-.3-.8.1-1.4.8-1.4.7 0 1.1.6.8 1.4zm3.1-.1c.3.8.2 1.2-.4.9-.6-.3-1-1-1-1.6 0-1.4.7-1.1 1.4.7zm-9.7 1.6c-.3.8-.6.5-.6-.6-.1-1.1.2-1.7.5-1.3.3.3.4 1.2.1 1.9zm14 1c-.3.8-.6.5-.6-.6-.1-1.1.2-1.7.5-1.3.3.3.4 1.2.1 1.9zm-21.9 1.3c-.3.3-.9-.2-1.2-1.2-.6-1.4-.5-1.5.5-.6.7.7 1 1.5.7 1.8zm3.9-1c0 .6-.6 1.2-1.2 1.2s-1.2-.6-1.2-1.2.6-1.2 1.2-1.2 1.2.6 1.2 1.2z"/><path d="M314 169.5v23.4l29 .3 29 .3V146h-58v23.5zM375 169.7v23.8h24V146h-24v23.7zM162 260.1c-4.7 1.5-8.7 2.8-8.9 2.9-.2 0 1.2 1.7 3.2 3.9 4.5 5 6.2 10.1 5.8 17.6-.6 11.4-.5 14.4.1 15 .3.3 3.8-.4 7.8-1.6 6.1-1.8 7.1-2.4 6.6-4-.3-1.1-.9-2.7-1.2-3.8-.5-1.5.1-2 2.9-2.5 9.9-1.9 14.4-12.3 9.6-22.2-4.2-8.8-11.3-10.3-25.9-5.3zm12.6 12.4c.6 2.4-.9 5.5-2.6 5.5-.4 0-1.1-1.1-1.4-2.4-.3-1.3-.9-3.1-1.2-4-.5-1.2 0-1.6 2-1.6 1.9 0 2.7.6 3.2 2.5z"/><path d="M128.5 264.9c-2.2 1-4.8 2.8-5.9 3.9-1.8 2-1.8 2.2.3 5.1 4 5.6 4.7 15.8 1.5 22.3-1.3 2.6-1.3 2.7 3.8 5.2 5.7 2.8 9.7 3.2 14.9 1.5 13.9-4.7 18.9-21.2 9.7-32.3-6-7.3-15.8-9.6-24.3-5.7zm12.7 13.8c3.4 3.1 1.8 9.4-2.8 10.7-2.9.9-7.4-2.8-7.4-6.1 0-5.5 6.2-8.3 10.2-4.6zM331 263.9c-5.1 1.6-10.6 5-13.9 8.5l-3.5 3.6h53.8l-3.3-3.4c-1.8-1.9-5.6-4.6-8.4-6.2-4.4-2.3-6.6-2.8-13.7-3.1-4.7-.1-9.6.1-11 .6z"/><path d="M316.2 269.7c-7.1 7.1-9.6 13-10 23.5-.3 6 0 8.8.7 8.8.6 0 1.1.8 1.1 1.7.1 6.3 9.3 17.9 17.5 22.1 7.2 3.7 18.8 4.2 26.7 1.2 7.9-3 15-9.6 18.8-17.6 1.7-3.6 2.8-6.9 2.5-7.5-.4-.5-.1-.9.4-.9 1.6 0 1.3-10.8-.4-16.6-1.8-6.3-6.4-13.2-10.7-16.4l-3.3-2.4 3.8 4.5c4.5 5.3 9.2 14.1 10.1 18.9.4 2.6.4 3-.3 1.4-2.8-6.5-31.4-10.5-48.6-6.9-8.7 1.8-16.3 4.5-16.8 5.9-.2.6-.2 0 0-1.4.7-4.5 5.3-12.8 9.9-17.9 5.8-6.4 4.8-6.6-1.4-.4zM93 273.3c-5.2 1.6-9.7 3.2-9.9 3.3-.2.2 1 4.3 2.8 9.1 1.7 4.8 4.2 12.8 5.5 17.6 1.4 4.9 2.7 9.1 2.9 9.4.3.2 3.7-.6 7.7-1.8 5.8-1.7 7-2.4 6.4-3.8-1.9-4.7-1.7-5.8 1.7-6.5 1.8-.3 4.7-1.8 6.5-3.1 7.8-5.9 6.1-20-2.9-25.5-4.4-2.7-9.4-2.4-20.7 1.3zm13 11.6c1.2 2.3.5 4.7-1.6 5.5-1.5.6-3.4-2.9-3.4-6 0-2.1 3.8-1.7 5 .5zM209.6 284.1c-3.3 1.1-6.1 2.1-6.3 2.3-.2.2.8 3.4 2.2 7.1 1.4 3.8 2.4 6.9 2.3 7.1-.2.1-3-1.8-6.3-4.3-10.5-7.9-9.6-7.6-14.8-5.3-4.4 2-4.7 2.3-4.7 6s.1 3.8 4.2 4.5c9.6 1.7 14.6 12.2 11.7 24.5-.3 1.1.3 1.4 2.1 1.2 5-.5 5.1-.7 2.5-8.2-1.3-3.8-2.1-7-1.8-7 .3 0 3.6 2.2 7.4 5 7.6 5.5 7.5 5.5 13.1 3.8 6-1.8 6.2-3.1 2.4-16-1.9-6.2-4.1-13.9-5-17.1-.9-3.1-2-5.7-2.4-5.6-.4.1-3.4 1-6.6 2z"/><path d="M167.1 309.4c-8.3 2.8-9.1 3.3-7.6 4.6 4.1 3.4 5.9 9.1 6 20 .1 5.8.7 11.7 1.3 13.1l1 2.6 6.4-2c3.5-1 6.9-2.1 7.6-2.3.9-.2.5-1.8-1.2-5.9-1.4-3-2.2-5.5-1.8-5.4.4 0 2.4 2.2 4.4 4.9l3.7 4.8 7.6-2.5 7.7-2.6-5.7-5.7-5.7-5.7 1.6-3.1c2-3.8 2-7.2.2-11.7-3-7.2-10.8-8.2-25.5-3.1zm12 10.2c1.1 1.4 1 1.9-1.1 3.6-2.4 2-2.4 2-3.3-.1-1.9-4.1 1.6-6.9 4.4-3.5zM268.4 306.9c-4.9 1.2-11.8 4.9-14.5 7.7-2.1 2.2-2.1 2.4-.4 1.8 1.1-.4 2.9-1.4 4-2.3 1.1-.9-.3.9-3.1 3.9-6.1 6.7-9.3 14.5-9.6 23.3 0 3.4-.3 4.8-.5 2.9-.7-5.8-2.6-3.7-2 2.3 1.4 13.8 14.9 26.9 29.7 29 5.6.8 18.2-2.3 23.8-5.8 9.7-6.2 15.6-16.9 15.6-28.2 0-7.7-1.6-12.9-5.6-18.9-3-4.6-12.3-12.4-14-11.9-.5.2-.8-.2-.8-.8 0-.5-.4-.7-1-.4-.5.3-1 .1-1-.5 0-.7-.8-.9-2.1-.5-1.3.5-1.9.3-1.5-.3 1.2-2-10.4-2.8-17-1.3zm12.6 1c0 .5-.8 1.5-1.7 2.2-2.7 2.2-9.9 13.9-12.7 20.7-4.7 11.2-7.5 28.9-5.7 36.4l.9 3.8-2.7-2c-5.4-3.8-5.4-2.8-1.1-30.5 2.2-14.1 4-26.1 4-26.5 0-1 8.3-3.8 12.5-4.2 1.7-.2 3.8-.4 4.8-.5.9-.1 1.7.2 1.7.6zM396.7 306.7c-1.5.2-2.5.9-2.2 1.4.3.5-.1.6-.9.3-.9-.3-1.6-.1-1.6.6 0 .6-.4.8-1 .5-1.2-.8-10.8 6.3-14.5 10.7-12 14.3-8.8 37.6 6.8 48.2 6.6 4.5 19.3 8 25.7 7.1 14.4-2.1 27.4-14.4 29.5-28.1.5-3.3.3-4.1-.9-4.1-1 0-1.6.9-1.6 2.4 0 3.4-3.5 11.9-6.4 15.7-1.4 1.9-4.2 4.7-6.3 6.4l-3.8 3v-12.2c0-9.8-.5-13.5-2.4-19.6-2.7-9-7.6-18.6-13.1-25.8-2.2-2.9-4-5.4-4-5.5 0-.2 2.8 0 6.3.3 6.9.8 13 3.5 19.4 8.6 5 4.1 6.6 3 2-1.3-8.2-7.6-18.6-10.5-31-8.6zM131.2 312.6c-5.6 2.8-7.4 5-7.9 9.9-.1 1.6-.8 5.2-1.3 7.9-.6 2.7-.9 5-.8 5.1.2.1 2.4 1.8 5.1 3.9 3.6 2.9 4.7 4.5 4.7 6.6 0 2.4.6 3 3.6 4 8.2 2.7 18.2-.9 22.7-8.2 5.1-8.3 4.5-17.5-1.6-24.5-6.5-7.4-15.6-9.2-24.5-4.7zm13.3 13.9c1.4 1.3 2.5 3 2.5 3.8 0 2.3-4 6.7-6.1 6.7-2.4 0-6.9-4.3-6.9-6.5 0-.9 1.1-2.7 2.5-4 1.3-1.4 3.1-2.5 4-2.5.9 0 2.7 1.1 4 2.5z"/><path d="M100.5 319.9c-8.6 3.9-13.9 14.3-11.6 22.8 4.2 15.4 22.6 21 33.7 10.2 4.5-4.4 4.3-6.8-.8-10.7l-4.1-3.2-2.5 2.5c-4.7 4.8-12.2 2.3-12.2-4.1 0-4.3 4.4-6.3 11.4-5.2 2 .3 2.6-1 4-8.3.6-3.2.3-3.7-1.9-4.7-3.8-1.7-11.4-1.4-16 .7zM458.5 339c-.4 1.7-.5 3.4-.2 3.6.2.3.7-1 1.1-2.7.8-4.2 0-5-.9-.9zM323.7 338.7c-1.5 1.4-.7 4.3 1.2 4.3 2.4 0 3.3-1.3 2.5-3.4-.6-1.6-2.5-2.1-3.7-.9zM353.4 339.5c-.4.9-.2 2.1.4 2.7 1.5 1.5 4.4.1 4-1.9-.4-2.3-3.6-2.9-4.4-.8zM459.5 345.5c-.4 2.5-.5 4.8-.2 5.1.2.3.8-1.6 1.2-4.1.3-2.6.4-4.9.2-5.2-.3-.3-.9 1.6-1.2 4.2zM332.6 348.9c-9.3 6.1-8.8 20.9.8 25.5 13.2 6.3 27.1-7.9 19.6-20.2-4.2-6.8-14.1-9.4-20.4-5.3zM460.8 354c-.4 3-.9 9.6-1.2 14.5-2.7 47-33.4 88.2-78.2 105.1-9 3.4-22.1 6.6-26.2 6.5-1.9-.1-3.1.2-2.9.6.3.4-5.3.8-12.3.9-7.1 0-12.7-.3-12.5-.6.2-.4-.2-.7-1-.7-1.1 0-1.2.4-.4 1.3 1.1 1.3 29.3 1.9 28.5.6-.2-.4 1.4-.6 3.6-.4 2.5.3 3.8.1 3.5-.5-.4-.6.3-.8 1.6-.6 3.2.6 18.8-4.2 28.4-8.7 15.8-7.4 31.4-19.2 40.9-30.9 2.7-3.3 5.2-6 5.5-6 .3-.1 1.1 2.1 1.8 4.8 1.9 7.7 6.5 16.4 10.7 20.6 2.2 2.1 7.1 5.3 10.9 7.1 7.1 3.3 21.5 6.9 22.6 5.6.4-.4 2.2-5.5 4.2-11.3l3.5-10.6-9.7-.5c-13.5-.7-22.6-4.9-34.9-16.5l-5.2-4.9 4.5-7.9c10.8-18.9 15.9-40.1 15.3-62.5-.3-9.4-.4-9.9-1-5zM313.7 368.4c-.7 1.7 1.8 4 3.3 3.1.5-.3 1-1.5 1-2.6 0-2.3-3.5-2.7-4.3-.5zM362.7 368.3c-.3.8-.2 2 .3 2.7 1.1 1.8 4.2.4 3.8-1.7-.4-2.2-3.4-2.9-4.1-1zM290.5 382.7c-7.3 2.7-17 9.6-15.9 11.5.3.5 0 .7-.8.6-.7-.2-1.2.5-1.2 1.4.1 1-.2 1.5-.7 1.2-.5-.3-1.9 1.6-3.1 4.3-2.3 5.2-3.8 19.3-2.1 19.3.6 0 1.3-3.5 1.6-7.8.3-4.2.9-8.8 1.4-10 .9-2.2 1.1-2.1 4.6 3.2 4.5 6.7 13.6 16.1 20.1 20.5 6.4 4.5 18.9 10.2 25 11.6l5.1 1.2-5.4 3.1c-10.2 5.8-21 6.6-30.8 2.2-2.9-1.3-4.5-1.5-4.9-.8-1 1.5 2.2 3.6 8 5.3 6.7 2 12.2 1.9 19.9-.5 8-2.5 16.5-9.7 20.5-17.4 2.3-4.6 2.6-6.2 2.6-16.1.1-10.1-.1-11.4-2.6-16.2-3.4-6.4-8.8-11.7-15.3-15.1-6.7-3.4-18.7-4.1-26-1.5z"/><path d="M368 382.6c-9.4 3.4-16 9.6-19.9 18.5-2.9 6.7-3.3 12.5-1.7 21.3 2.4 12.4 8.9 20.8 19.9 25.6 5.6 2.5 16.1 3.7 18 2.1.8-.6 1.8-.7 2.2-.3.5.4.5.2.2-.5-.4-.6-.3-1.3.3-1.5.5-.1-2.9-.3-7.8-.3-7.3-.1-9.5-.5-14.2-2.8-3-1.5-6.8-3.8-8.5-5.2-1.8-1.6-2.1-2.1-.8-1.3 1.8 1 3.2 1 7 0 7-1.9 16.7-6.6 23.8-11.7 7.5-5.3 18.6-17.1 21.3-22.6l2-4 1.3 3.8c2 5.9 1.6 16.9-.9 23.3-2.9 7.2-1.1 9.3 2 2.4 1.8-3.9 2.3-6.7 2.3-13.4 0-7.6-.4-9.3-3.2-15-3.1-6.3-10.2-14.6-10.4-12.2-.3 2.6-.4 3-.9 3.4-.3.1-.4.1-.3-.1.2-.2-.3-1.1-1-1.9-1-1.3-.9-1.4.2-.8.9.6 1.2.4.9-.5-.3-.8-3-2.7-6.1-4.3-7.2-3.7-18.6-4.6-25.7-2zm23.6 5.2c-1.7 1.6-1.8 1.6-.5-.5.7-1.2 1.5-2 1.8-1.7.3.2-.3 1.2-1.3 2.2zm4.4.2c.6 1.1.8 2 .6 2-.3 0-1-.9-1.6-2-.6-1.1-.8-2-.6-2 .3 0 1 .9 1.6 2zm8.6 4.2c1 1.3 1.2 1.7.4 1.1-1.1-1-1.7-1-2.9 0-1.4 1-1.4 1-.4-.4.7-.9 1-1.9.6-2.2-.3-.4-.4-.7-.1-.7.3 0 1.3 1 2.4 2.2zm2.9 3.7c.3.5.2 1.2-.3 1.5-.5.3-.9-.1-.9-.9 0-1.7.3-1.9 1.2-.6zM338.4 386.5c-.4.9-.2 2.1.4 2.7 1.5 1.5 4.4.1 4-1.9-.4-2.3-3.6-2.9-4.4-.8zM170 437.6c8.4.8 18 .8 18 .1 0-.4-4.8-.6-10.7-.5-6 .1-9.2.3-7.3.4zM329 444.5c-4.5 4.6-14.7 10.5-18.2 10.5-1 0-1.8.3-1.8.7 0 .8-13.6.7-15.7-.2-3-1.1-1 .6 2.3 2 4.3 1.8 4.7 1.8 3.9.5-.3-.6.1-.7.9-.4.9.3 1.3 1.1.9 1.7-.3.6-.1.7.6.3.6-.4.8-1.2.5-1.8-.4-.6.7-.9 2.8-.7 1.8.2 3.8 0 4.5-.4.6-.4 2.3-.8 3.7-.9 1.4-.1 2.6-.6 2.6-1.1 0-.4.5-.5 1-.2.6.3 1 .1 1-.6s.3-1 .6-.6c.4.3 1.3-.1 2.1-.9s1.9-1.1 2.5-.8c.7.5.8.2.3-.6-.6-1-.4-1.2.8-.7 1 .4 1.6.2 1.4-.6-.1-.7.4-1.1 1.1-1 .6.2 1.1-.3 1-1-.2-.6.3-1.1 1-1 .6.2 1.1-.3 1-1-.2-.6.4-1.1 1.2-.9.8.2 1.2 0 .7-.4-.4-.4 0-1.6 1-2.6 3.3-3.7.6-1.7-3.7 2.7zM141 445.9c0 .6.4 1.3 1 1.6.6.3.7-.1.4-.9-.7-1.8-1.4-2.1-1.4-.7zM223 448.4c0 .2.7.7 1.6 1 .8.3 1.2.2.9-.4-.6-1-2.5-1.4-2.5-.6zM79.2 450.6c-.9.7-1.4 1.6-.9 2 .4.4.7.1.7-.7 0-1.1.2-1.1 1 .1.8 1.2 1 1.2 1.1-.5v-2l.9 2 .9 2 .1-2c.1-2 .2-2 .9-.1.8 2 .8 2 1.3 0 .4-1.6 0-2-1.9-2-1.4 0-3.2.5-4.1 1.2zM67.8 451.7c.7.3 1.6.2 1.9-.1.4-.3-.2-.6-1.3-.5-1.1 0-1.4.3-.6.6zM383 456.9c0 .5.9.7 2 .4 1.1-.3 2-.7 2-.9 0-.2-.9-.4-2-.4s-2 .4-2 .9zM319.7 479.6c-.4.4-.4 1.1-.1 1.5.7 1.2 4.4 1.1 4.4 0 0-.5-1-.7-2.2-.3-1.4.3-1.9.2-1.4-.6.8-1.3.3-1.6-.7-.6zM314.8 480.7c.6.2 1.8.2 2.5 0 .6-.3.1-.5-1.3-.5-1.4 0-1.9.2-1.2.5z"/></svg>