<?xml version="1.0" standalone="no"?>
<!DOCTYPE svg PUBLIC "-//W3C//DTD SVG 20010904//EN"
 "http://www.w3.org/TR/2001/REC-SVG-20010904/DTD/svg10.dtd">
<svg version="1.0" xmlns="http://www.w3.org/2000/svg"
 width="512.000000pt" height="512.000000pt" viewBox="0 0 512.000000 512.000000"
 preserveAspectRatio="xMidYMid meet">
<metadata>
Created by potrace 1.14, written by Peter Selinger 2001-2017
</metadata>
<g transform="translate(0.000000,512.000000) scale(0.100000,-0.100000)"
fill="#000000" stroke="none">
<path d="M4571 5065 c-63 -14 -116 -26 -117 -28 -2 -2 65 -71 149 -155 l152
-152 60 11 c33 7 61 13 63 14 7 5 -50 252 -63 272 -41 62 -92 70 -244 38z"/>
<path d="M3907 4932 c-70 -14 -126 -30 -125 -34 2 -4 69 -74 151 -156 l147
-149 155 31 c85 17 155 33 155 37 0 3 -67 72 -149 152 -125 122 -155 147 -178
146 -15 -1 -85 -13 -156 -27z"/>
<path d="M3260 4800 c-69 -14 -131 -28 -138 -31 -7 -2 55 -71 142 -158 l154
-153 138 27 c77 16 145 31 152 34 15 8 -288 312 -309 310 -8 -1 -70 -14 -139
-29z"/>
<path d="M2606 4669 c-77 -16 -141 -30 -142 -32 -2 -2 66 -72 150 -156 l153
-152 141 27 c78 16 142 31 142 34 0 3 -69 73 -152 156 l-153 151 -139 -28z"/>
<path d="M2250 4505 c-19 -9 -38 -21 -42 -28 -5 -8 -15 -4 -32 13 l-26 23 0
-39 c0 -21 3 -56 6 -76 6 -37 8 -38 49 -38 27 0 51 -7 66 -19 20 -16 24 -27
22 -73 -1 -29 -9 -75 -17 -102 -11 -36 -12 -53 -4 -63 16 -20 38 -15 38 9 0
34 39 106 70 128 50 36 122 19 199 -45 24 -21 36 -25 55 -18 24 8 21 12 -88
148 -116 143 -156 178 -226 189 -22 4 -48 0 -70 -9z m85 -76 c4 -6 -3 -21 -16
-35 -17 -18 -25 -21 -36 -13 -17 15 -16 24 3 43 18 18 40 21 49 5z"/>
<path d="M2739 4204 c-18 -29 -20 -40 -10 -53 6 -9 22 -38 36 -66 28 -56 23
-73 -32 -110 l-30 -21 43 -18 c23 -9 55 -29 69 -42 22 -21 26 -31 21 -57 -9
-43 -43 -76 -87 -83 -45 -8 -55 -13 -63 -40 -6 -19 -2 -22 55 -28 34 -3 491
-6 1015 -6 629 0 954 -3 954 -10 0 -6 -122 -10 -345 -10 l-345 0 0 -237 0
-238 342 0 c264 0 342 -3 345 -12 4 -10 -96 -13 -476 -13 l-481 0 0 -190 0
-190 480 0 c313 0 480 -3 480 -10 0 -7 -335 -10 -985 -10 -650 0 -985 3 -985
10 0 7 170 10 490 10 l490 0 0 90 0 90 -475 0 c-310 0 -475 3 -475 10 0 7 165
10 475 10 l475 0 0 90 0 90 -461 0 c-364 0 -460 3 -457 13 4 9 47 13 161 15
l157 3 0 234 0 235 -151 0 -152 0 47 -50 c26 -28 58 -74 71 -103 21 -45 23
-58 14 -96 -20 -87 -56 -131 -109 -131 -32 0 -37 4 -49 35 -28 78 -143 132
-259 122 -116 -11 -223 -84 -252 -173 -6 -18 -23 -165 -38 -327 l-27 -294 -45
34 c-85 66 -260 142 -365 158 -84 14 -77 -8 -74 223 3 197 2 209 -19 250 -45
85 -162 140 -279 129 -100 -10 -177 -56 -215 -132 -20 -38 -21 -52 -15 -282 4
-186 2 -243 -7 -243 -21 0 -178 -80 -248 -126 -36 -24 -100 -77 -141 -117
l-74 -72 -32 360 c-18 198 -37 381 -42 407 -52 233 -443 286 -525 71 -15 -40
-16 -55 -6 -122 78 -521 364 -2355 372 -2381 5 -21 21 -42 37 -52 20 -13 23
-18 11 -18 -10 0 -24 -10 -32 -23 -17 -26 -34 -151 -17 -127 10 15 64 23 55 9
-3 -5 2 -6 10 -3 9 3 14 9 11 13 -2 4 2 8 10 8 8 0 12 -4 9 -8 -2 -4 1 -11 7
-15 8 -4 9 -3 5 4 -4 7 -2 12 5 12 8 0 7 5 -2 18 -12 15 -12 16 2 5 9 -7 20
-9 24 -5 5 4 5 2 2 -4 -3 -6 0 -11 8 -11 8 0 12 4 10 8 -3 4 18 9 47 11 43 2
52 0 56 -15 4 -14 7 -16 13 -6 4 7 3 19 -2 25 -7 8 -6 15 2 20 7 4 9 3 5 -4
-3 -6 -2 -13 4 -17 5 -3 10 2 10 12 0 15 2 16 10 3 9 -13 10 -13 10 0 0 13 1
13 10 0 9 -13 10 -13 10 0 0 13 1 13 10 0 9 -13 10 -13 10 0 0 12 2 13 9 1 5
-7 6 -23 3 -35 -3 -11 -1 -17 4 -13 5 4 9 22 10 40 3 43 13 90 22 99 4 4 88 9
187 11 l180 2 -187 3 c-172 2 -188 4 -188 20 0 9 -14 167 -31 350 -17 183 -29
335 -26 338 2 3 26 -9 53 -26 65 -41 181 -85 279 -105 44 -9 82 -18 85 -21 3
-3 9 -158 14 -344 l9 -337 41 1 c37 2 42 5 46 32 l6 29 7 -25 c7 -24 8 -24 22
-6 8 10 12 24 8 30 -3 6 5 1 19 -12 18 -16 28 -20 33 -12 5 8 11 8 19 1 16
-13 26 -4 20 17 -2 10 2 3 11 -15 17 -37 31 -48 33 -28 1 8 3 22 4 30 1 8 5
12 9 10 4 -3 5 -15 2 -28 -4 -21 -4 -21 12 3 l16 25 -5 -25 c-5 -24 -4 -24 9
-6 8 10 12 24 9 30 -3 6 5 0 17 -14 22 -24 22 -25 16 -2 -3 12 -1 20 4 16 5
-3 9 -11 9 -19 0 -8 3 -16 8 -18 4 -3 8 23 9 56 12 387 24 642 30 647 4 4 33
15 63 24 84 26 228 99 298 150 l62 46 0 -28 c0 -15 -9 -119 -20 -232 -24 -250
-25 -266 -4 -274 9 -3 44 7 79 24 35 16 70 30 78 30 14 0 14 7 -3 56 -66 191
-75 454 -22 663 l18 68 -37 -11 c-40 -12 -121 -94 -139 -140 -5 -14 -21 -31
-34 -36 -14 -5 -66 -34 -116 -64 -205 -124 -432 -175 -640 -146 -47 7 -121 14
-166 15 -44 2 -96 10 -116 18 -52 22 -103 72 -128 125 -12 26 -32 58 -45 72
-37 39 -85 151 -96 224 -14 89 2 188 46 283 26 57 32 79 25 93 -14 27 -12 76
3 89 8 6 42 20 78 31 42 13 83 35 119 65 127 105 346 192 513 203 274 19 461
-36 613 -180 95 -91 139 -182 153 -318 5 -52 14 -108 21 -124 l11 -29 42 74
c87 153 224 304 358 395 70 48 71 49 40 52 -49 5 -36 22 18 22 34 0 71 10 124
35 171 77 318 108 517 109 197 0 345 -31 517 -109 l75 -35 359 0 c233 0 359
-4 359 -10 0 -6 -123 -10 -347 -10 l-348 0 44 -25 c50 -29 154 -111 190 -149
l24 -26 246 0 c271 0 292 4 335 63 21 28 21 34 18 741 -3 648 -2 714 13 726
38 31 45 65 45 210 l0 140 -77 0 -78 0 -110 -190 -110 -190 -172 0 c-95 0
-173 2 -173 5 0 3 41 75 91 162 49 86 97 169 105 185 l15 28 -162 0 c-139 0
-160 -2 -155 -15 3 -8 1 -14 -4 -12 -6 1 -56 -77 -113 -173 l-102 -175 -174
-3 c-155 -2 -173 -1 -167 13 3 9 39 73 80 143 40 70 85 148 99 175 l27 47
-160 0 c-144 0 -186 -7 -147 -24 6 -3 4 -4 -7 -3 -14 1 -42 -38 -120 -173
l-103 -175 -176 -3 -176 -2 104 182 c58 100 105 186 105 190 0 4 -69 8 -154 8
l-154 0 -23 -36z m68 10 c-3 -3 -12 -4 -19 -1 -8 3 -5 6 6 6 11 1 17 -2 13 -5z
m46 -1 c-7 -2 -19 -2 -25 0 -7 3 -2 5 12 5 14 0 19 -2 13 -5z m44 1 c-3 -3
-12 -4 -19 -1 -8 3 -5 6 6 6 11 1 17 -2 13 -5z m40 0 c-3 -3 -12 -4 -19 -1 -8
3 -5 6 6 6 11 1 17 -2 13 -5z m100 0 c-3 -3 -12 -4 -19 -1 -8 3 -5 6 6 6 11 1
17 -2 13 -5z m450 0 c-3 -3 -12 -4 -19 -1 -8 3 -5 6 6 6 11 1 17 -2 13 -5z
m40 0 c-3 -3 -12 -4 -19 -1 -8 3 -5 6 6 6 11 1 17 -2 13 -5z m40 0 c-3 -3 -12
-4 -19 -1 -8 3 -5 6 6 6 11 1 17 -2 13 -5z m46 -1 c-7 -2 -19 -2 -25 0 -7 3
-2 5 12 5 14 0 19 -2 13 -5z m90 0 c-13 -2 -35 -2 -50 0 -16 2 -5 4 22 4 28 0
40 -2 28 -4z m444 1 c-3 -3 -12 -4 -19 -1 -8 3 -5 6 6 6 11 1 17 -2 13 -5z
m40 0 c-3 -3 -12 -4 -19 -1 -8 3 -5 6 6 6 11 1 17 -2 13 -5z m40 0 c-3 -3 -12
-4 -19 -1 -8 3 -5 6 6 6 11 1 17 -2 13 -5z m46 -1 c-7 -2 -19 -2 -25 0 -7 3
-2 5 12 5 14 0 19 -2 13 -5z m50 0 c-7 -2 -19 -2 -25 0 -7 3 -2 5 12 5 14 0
19 -2 13 -5z m44 1 c-3 -3 -12 -4 -19 -1 -8 3 -5 6 6 6 11 1 17 -2 13 -5z
m526 -1 c-13 -2 -33 -2 -45 0 -13 2 -3 4 22 4 25 0 35 -2 23 -4z m-3440 -3540
c-3 -7 -6 -13 -8 -13 -2 0 -5 6 -8 13 -3 8 1 14 8 14 7 0 11 -6 8 -14z m31 1
c3 -8 2 -12 -4 -9 -6 3 -10 10 -10 16 0 14 7 11 14 -7z m-97 -16 c-3 -8 -6 -5
-6 6 -1 11 2 17 5 13 3 -3 4 -12 1 -19z m140 -10 c-3 -8 -6 -5 -6 6 -1 11 2
17 5 13 3 -3 4 -12 1 -19z m-219 -13 c-3 -3 -9 2 -12 12 -6 14 -5 15 5 6 7 -7
10 -15 7 -18z m39 10 c0 -6 -6 -12 -12 -12 -6 0 -12 6 -12 12 0 6 6 12 12 12
6 0 12 -6 12 -12z"/>
<path d="M3140 3425 l0 -234 290 -3 290 -3 0 238 0 237 -290 0 -290 0 0 -235z"/>
<path d="M3750 3423 l0 -238 120 0 120 0 0 238 0 237 -120 0 -120 0 0 -237z"/>
<path d="M1620 2519 c-47 -15 -87 -28 -89 -29 -2 0 12 -17 32 -39 45 -50 62
-101 58 -176 -6 -114 -5 -144 1 -150 3 -3 38 4 78 16 61 18 71 24 66 40 -3 11
-9 27 -12 38 -5 15 1 20 29 25 99 19 144 123 96 222 -42 88 -113 103 -259 53z
m126 -124 c6 -24 -9 -55 -26 -55 -4 0 -11 11 -14 24 -3 13 -9 31 -12 40 -5 12
0 16 20 16 19 0 27 -6 32 -25z"/>
<path d="M1285 2471 c-22 -10 -48 -28 -59 -39 -18 -20 -18 -22 3 -51 40 -56
47 -158 15 -223 -13 -26 -13 -27 38 -52 57 -28 97 -32 149 -15 139 47 189 212
97 323 -60 73 -158 96 -243 57z m127 -138 c34 -31 18 -94 -28 -107 -29 -9 -74
28 -74 61 0 55 62 83 102 46z"/>
<path d="M3310 2481 c-51 -16 -106 -50 -139 -85 l-35 -36 269 0 269 0 -33 34
c-18 19 -56 46 -84 62 -44 23 -66 28 -137 31 -47 1 -96 -1 -110 -6z"/>
<path d="M3162 2423 c-71 -71 -96 -130 -100 -235 -3 -60 0 -88 7 -88 6 0 11
-8 11 -17 1 -63 93 -179 175 -221 72 -37 188 -42 267 -12 79 30 150 96 188
176 17 36 28 69 25 75 -4 5 -1 9 4 9 16 0 13 108 -4 166 -18 63 -64 132 -107
164 l-33 24 38 -45 c45 -53 92 -141 101 -189 4 -26 4 -30 -3 -14 -28 65 -314
105 -486 69 -87 -18 -163 -45 -168 -59 -2 -6 -2 0 0 14 7 45 53 128 99 179 58
64 48 66 -14 4z"/>
<path d="M930 2387 c-52 -16 -97 -32 -99 -33 -2 -2 10 -43 28 -91 17 -48 42
-128 55 -176 14 -49 27 -91 29 -94 3 -2 37 6 77 18 58 17 70 24 64 38 -19 47
-17 58 17 65 18 3 47 18 65 31 78 59 61 200 -29 255 -44 27 -94 24 -207 -13z
m130 -116 c12 -23 5 -47 -16 -55 -15 -6 -34 29 -34 60 0 21 38 17 50 -5z"/>
<path d="M2096 2279 c-33 -11 -61 -21 -63 -23 -2 -2 8 -34 22 -71 14 -38 24
-69 23 -71 -2 -1 -30 18 -63 43 -105 79 -96 76 -148 53 -44 -20 -47 -23 -47
-60 0 -37 1 -38 42 -45 96 -17 146 -122 117 -245 -3 -11 3 -14 21 -12 50 5 51
7 25 82 -13 38 -21 70 -18 70 3 0 36 -22 74 -50 76 -55 75 -55 131 -38 60 18
62 31 24 160 -19 62 -41 139 -50 171 -9 31 -20 57 -24 56 -4 -1 -34 -10 -66
-20z"/>
<path d="M1671 2026 c-83 -28 -91 -33 -76 -46 41 -34 59 -91 60 -200 1 -58 7
-117 13 -131 l10 -26 64 20 c35 10 69 21 76 23 9 2 5 18 -12 59 -14 30 -22 55
-18 54 4 0 24 -22 44 -49 l37 -48 76 25 77 26 -57 57 -57 57 16 31 c20 38 20
72 2 117 -30 72 -108 82 -255 31z m120 -102 c11 -14 10 -19 -11 -36 -24 -20
-24 -20 -33 1 -19 41 16 69 44 35z"/>
<path d="M2684 2051 c-49 -12 -118 -49 -145 -77 -21 -22 -21 -24 -4 -18 11 4
29 14 40 23 11 9 -3 -9 -31 -39 -61 -67 -93 -145 -96 -233 0 -34 -3 -48 -5
-29 -7 58 -26 37 -20 -23 14 -138 149 -269 297 -290 56 -8 182 23 238 58 97
62 156 169 156 282 0 77 -16 129 -56 189 -30 46 -123 124 -140 119 -5 -2 -8 2
-8 8 0 5 -4 7 -10 4 -5 -3 -10 -1 -10 5 0 7 -8 9 -21 5 -13 -5 -19 -3 -15 3
12 20 -104 28 -170 13z m126 -10 c0 -5 -8 -15 -17 -22 -27 -22 -99 -139 -127
-207 -47 -112 -75 -289 -57 -364 l9 -38 -27 20 c-54 38 -54 28 -11 305 22 141
40 261 40 265 0 10 83 38 125 42 17 2 38 4 48 5 9 1 17 -2 17 -6z"/>
<path d="M3967 2053 c-15 -2 -25 -9 -22 -14 3 -5 -1 -6 -9 -3 -9 3 -16 1 -16
-6 0 -6 -4 -8 -10 -5 -12 8 -108 -63 -145 -107 -120 -143 -88 -376 68 -482 66
-45 193 -80 257 -71 144 21 274 144 295 281 5 33 3 41 -9 41 -10 0 -16 -9 -16
-24 0 -34 -35 -119 -64 -157 -14 -19 -42 -47 -63 -64 l-38 -30 0 122 c0 98 -5
135 -24 196 -27 90 -76 186 -131 258 -22 29 -40 54 -40 55 0 2 28 0 63 -3 69
-8 130 -35 194 -86 50 -41 66 -30 20 13 -82 76 -186 105 -310 86z"/>
<path d="M1312 1994 c-56 -28 -74 -50 -79 -99 -1 -16 -8 -52 -13 -79 -6 -27
-9 -50 -8 -51 2 -1 24 -18 51 -39 36 -29 47 -45 47 -66 0 -24 6 -30 36 -40 82
-27 182 9 227 82 51 83 45 175 -16 245 -65 74 -156 92 -245 47z m133 -139 c14
-13 25 -30 25 -38 0 -23 -40 -67 -61 -67 -24 0 -69 43 -69 65 0 9 11 27 25 40
13 14 31 25 40 25 9 0 27 -11 40 -25z"/>
<path d="M1005 1921 c-86 -39 -139 -143 -116 -228 42 -154 226 -210 337 -102
45 44 43 68 -8 107 l-41 32 -25 -25 c-47 -48 -122 -23 -122 41 0 43 44 63 114
52 20 -3 26 10 40 83 6 32 3 37 -19 47 -38 17 -114 14 -160 -7z"/>
<path d="M4585 1730 c-4 -17 -5 -34 -2 -36 2 -3 7 10 11 27 8 42 0 50 -9 9z"/>
<path d="M3237 1733 c-15 -14 -7 -43 12 -43 24 0 33 13 25 34 -6 16 -25 21
-37 9z"/>
<path d="M3534 1725 c-4 -9 -2 -21 4 -27 15 -15 44 -1 40 19 -4 23 -36 29 -44
8z"/>
<path d="M4595 1665 c-4 -25 -5 -48 -2 -51 2 -3 8 16 12 41 3 26 4 49 2 52 -3
3 -9 -16 -12 -42z"/>
<path d="M3326 1631 c-93 -61 -88 -209 8 -255 132 -63 271 79 196 202 -42 68
-141 94 -204 53z"/>
<path d="M4608 1580 c-4 -30 -9 -96 -12 -145 -27 -470 -334 -882 -782 -1051
-90 -34 -221 -66 -262 -65 -19 1 -31 -2 -29 -6 3 -4 -53 -8 -123 -9 -71 0
-127 3 -125 6 2 4 -2 7 -10 7 -11 0 -12 -4 -4 -13 11 -13 293 -19 285 -6 -2 4
14 6 36 4 25 -3 38 -1 35 5 -4 6 3 8 16 6 32 -6 188 42 284 87 158 74 314 192
409 309 27 33 52 60 55 60 3 1 11 -21 18 -48 19 -77 65 -164 107 -206 22 -21
71 -53 109 -71 71 -33 215 -69 226 -56 4 4 22 55 42 113 l35 106 -97 5 c-135
7 -226 49 -349 165 l-52 49 45 79 c108 189 159 401 153 625 -3 94 -4 99 -10
50z"/>
<path d="M3137 1436 c-7 -17 18 -40 33 -31 5 3 10 15 10 26 0 23 -35 27 -43 5z"/>
<path d="M3627 1437 c-3 -8 -2 -20 3 -27 11 -18 42 -4 38 17 -4 22 -34 29 -41
10z"/>
<path d="M2905 1293 c-73 -27 -170 -96 -159 -115 3 -5 0 -7 -8 -6 -7 2 -12 -5
-12 -14 1 -10 -2 -15 -7 -12 -5 3 -19 -16 -31 -43 -23 -52 -38 -193 -21 -193
6 0 13 35 16 78 3 42 9 88 14 100 9 22 11 21 46 -32 45 -67 136 -161 201 -205
64 -45 189 -102 250 -116 l51 -12 -54 -31 c-102 -58 -210 -66 -308 -22 -29 13
-45 15 -49 8 -10 -15 22 -36 80 -53 67 -20 122 -19 199 5 80 25 165 97 205
174 23 46 26 62 26 161 1 101 -1 114 -26 162 -34 64 -88 117 -153 151 -67 34
-187 41 -260 15z"/>
<path d="M3680 1294 c-94 -34 -160 -96 -199 -185 -29 -67 -33 -125 -17 -213
24 -124 89 -208 199 -256 56 -25 161 -37 180 -21 8 6 18 7 22 3 5 -4 5 -2 2 5
-4 6 -3 13 3 15 5 1 -29 3 -78 3 -73 1 -95 5 -142 28 -30 15 -68 38 -85 52
-18 16 -21 21 -8 13 18 -10 32 -10 70 0 70 19 167 66 238 117 75 53 186 171
213 226 l20 40 13 -38 c20 -59 16 -169 -9 -233 -29 -72 -11 -93 20 -24 18 39
23 67 23 134 0 76 -4 93 -32 150 -31 63 -102 146 -104 122 -3 -26 -4 -30 -9
-34 -3 -1 -4 -1 -3 1 2 2 -3 11 -10 19 -10 13 -9 14 2 8 9 -6 12 -4 9 5 -3 8
-30 27 -61 43 -72 37 -186 46 -257 20z m236 -52 c-17 -16 -18 -16 -5 5 7 12
15 20 18 17 3 -2 -3 -12 -13 -22z m44 -2 c6 -11 8 -20 6 -20 -3 0 -10 9 -16
20 -6 11 -8 20 -6 20 3 0 10 -9 16 -20z m86 -42 c10 -13 12 -17 4 -11 -11 10
-17 10 -29 0 -14 -10 -14 -10 -4 4 7 9 10 19 6 22 -3 4 -4 7 -1 7 3 0 13 -10
24 -22z m29 -37 c3 -5 2 -12 -3 -15 -5 -3 -9 1 -9 9 0 17 3 19 12 6z"/>
<path d="M3384 1255 c-4 -9 -2 -21 4 -27 15 -15 44 -1 40 19 -4 23 -36 29 -44
8z"/>
<path d="M1700 744 c84 -8 180 -8 180 -1 0 4 -48 6 -107 5 -60 -1 -92 -3 -73
-4z"/>
<path d="M3290 675 c-45 -46 -147 -105 -182 -105 -10 0 -18 -3 -18 -7 0 -8
-136 -7 -157 2 -30 11 -10 -6 23 -20 43 -18 47 -18 39 -5 -3 6 1 7 9 4 9 -3
13 -11 9 -17 -3 -6 -1 -7 6 -3 6 4 8 12 5 18 -4 6 7 9 28 7 18 -2 38 0 45 4 6
4 23 8 37 9 14 1 26 6 26 11 0 4 5 5 10 2 6 -3 10 -1 10 6 0 7 3 10 6 6 4 -3
13 1 21 9 8 8 19 11 25 8 7 -5 8 -2 3 6 -6 10 -4 12 8 7 10 -4 16 -2 14 6 -1
7 4 11 11 10 6 -2 11 3 10 10 -2 6 3 11 10 10 6 -2 11 3 10 10 -2 6 4 11 12 9
8 -2 12 0 7 4 -4 4 0 16 10 26 33 37 6 17 -37 -27z"/>
<path d="M1410 661 c0 -6 4 -13 10 -16 6 -3 7 1 4 9 -7 18 -14 21 -14 7z"/>
<path d="M2230 636 c0 -2 7 -7 16 -10 8 -3 12 -2 9 4 -6 10 -25 14 -25 6z"/>
<path d="M792 614 c-9 -7 -14 -16 -9 -20 4 -4 7 -1 7 7 0 11 2 11 10 -1 8 -12
10 -12 11 5 l0 20 9 -20 9 -20 1 20 c1 20 2 20 9 1 8 -20 8 -20 13 0 4 16 0
20 -19 20 -14 0 -32 -5 -41 -12z"/>
<path d="M678 603 c7 -3 16 -2 19 1 4 3 -2 6 -13 5 -11 0 -14 -3 -6 -6z"/>
<path d="M3830 551 c0 -5 9 -7 20 -4 11 3 20 7 20 9 0 2 -9 4 -20 4 -11 0 -20
-4 -20 -9z"/>
<path d="M3197 324 c-4 -4 -4 -11 -1 -15 7 -12 44 -11 44 0 0 5 -10 7 -22 3
-14 -3 -19 -2 -14 6 8 13 3 16 -7 6z"/>
<path d="M3148 313 c6 -2 18 -2 25 0 6 3 1 5 -13 5 -14 0 -19 -2 -12 -5z"/>
</g>
</svg>
