<svg xmlns="http://www.w3.org/2000/svg" xmlns:xlink="http://www.w3.org/1999/xlink" viewBox="0 0 640 640"><defs><radialGradient id="b" cx="51.249" cy="268.41" r="731.79" gradientUnits="userSpaceOnUse"><stop offset="0" stop-color="#ddd"/><stop offset="1" stop-color="#7e7e7e"/></radialGradient><radialGradient id="c" cx="273.41" cy="429.83" r="309.13" gradientTransform="scale(1.1678 .8563)" gradientUnits="userSpaceOnUse"><stop offset="0" stop-color="#a3a3a3"/><stop offset="1" stop-color="#696969"/></radialGradient><radialGradient id="f" cx="-120.99" cy="57.971" r="388.16" gradientUnits="userSpaceOnUse"><stop offset="0"/><stop offset=".75"/><stop offset="1" stop-opacity="0"/></radialGradient><radialGradient xlink:href="#a" id="d" cx="124.4" cy="120.82" r="102.27" gradientTransform="scale(2.0419 .48973)" gradientUnits="userSpaceOnUse"/><radialGradient xlink:href="#a" id="e" cx="124.4" cy="120.82" r="102.27" gradientTransform="matrix(2.0178 .41721 -.07508 .64498 56.379 -73.488)" gradientUnits="userSpaceOnUse"/><linearGradient id="a"><stop offset="0" stop-color="#fff"/><stop offset="1" stop-color="#fff" stop-opacity="0"/></linearGradient></defs><path fill="url(#b)" d="M350.53 36.821a308.79 308.79 0 1 1-617.57 0 308.79 308.79 0 1 1 617.57 0z" transform="translate(281.58 288.51) scale(.87529)"/><path fill="#fff" d="m404.97 347.41-86.958 144.08 154.01-45.395-154.47 53.782 107.14 45.199-111.77-16.309 40.498 52.444-55.072-44.276.486 41.37-14.126-41.077-13.816 40.339 6.857-45.98-42.167 32.433 33.693-53.46-82.172 27.869 76.882-38.463-120.51-3.437 126.22-5.615-109.29-127.63 132.36 115.93 8.829-166.61 4.342 168.68 99.026-133.87z" opacity=".478"/><path fill="url(#c)" fill-rule="evenodd" d="M189.16 98.781c-1.44-.013-4.854 1.325-8.594 2.563-9.622 3.185-17.66 14.885-27.188 17.25-1.948.483-3.425.939-4.75 1.375 1.314-1.093 2.694-2.43 4-4.375 6.153-9.166 19.015-16.827 13.594-15.75-2.29.454-5.035 1.622-7.906 3.03-.037.028-.088.036-.125.063-48.011 35.324-83.888 86.125-100.34 145.03.037 1.722-.011 3.399-.375 4.844-.936 3.717-.657 7.15-1.5 10.5-.86 3.413-.752 6.774-2.25 9.75-1.912 3.797-1.824 7.858-.781 12 1.073 4.265 0 7.709 0 12 0 4.314-.007 7.431 1.53 11.25 2.482 6.16 4.376 12.923 6.032 19.5.252 1 .498 2 .75 3 1.13 4.486-1.242 12.544.75 16.5 1.313 2.607 3.741 12 8.313 12 4.989 0 7.456 1.32 9.812 6 2.602 5.168 3.055 11.355 4.531 17.219 1.108 4.401 3.024 11.232 6.063 14.25 2.024 2.01 9.812 9.105 9.812 3 0-3.657.094-9.908 3.75-9 2.596.644 2.92 7.188 5.313 6 1.007-.5 1.908-1.229 3-1.5 4.778-1.186 7.668-.81 11.344-3 3.891-2.319 8.64-10.5 14.344-10.5 4.249 0 13.594-1.427 13.594 4.5 0 2.858 1.852 10.945 4.344 13.531-2.187 2.702-2.504 4.898-.75 8.406 1.724 3.45 2.875 3.517 2.875 8.656 0 1.987-8.31 2.525-10.062 2.875-4.43.886-4.72.908-5.75 5.032-.97 3.879 2.14 7.875 2.875 10.812.894 3.576 3.414 5.752 4.312 9.343.97 3.88 1.931 2.338.719 7.188-.776 3.104 8.716 4.546 10.78 5.062 3.95.988 5.363 2.052 8.657 2.875 3.23.808 9.494-6.575 12.22-7.937 6.208-3.105 5.64 4.434 7.218-5.031.012-.073-.396-1.34-.594-1.97 14.334 3.452 37.267 4.137 41.156 6.876 4.882-4.648 14.336-7.048 19.875-11.375 2.976-2.325 12.584-2.323 16.562-4.313 3.11-1.555 4.586-4.828 5.781-7.218 2.383-4.765.83-5.778 6.47-7.188 3.233-.808-2.675-6.268-5.032-8.625-3.088-3.087-3.406-4.683-4.344-9.375-.684-3.42 1.835-8.637 2.906-10.78 2.285-4.57 6.991-8.874 10.062-12.97 4.34-5.785-1.307-12.12-5.03-15.844-1.615-1.614-7.845 1.774-9.376 2.156-3.21.803-5.031-10.352-5.031-12.219 0-6.942-9.786-13.415-12.97-18.719-2.127-3.546-9.666-4.679-11.5-4.312-4.304.86 2.823 17.174 3.595 18.719 2.315 4.631 2.875 10.346 2.875 15.812 0 4.386-1.21 7.03-2.156 10.812-1.017 4.065-2.49 5.917-6.47 7.906-4.224 2.112-7.28 2.156-12.25 2.156-2.155 0-5.78-3.468-7.187-4.312-.64-2.565-18 15.609-18 27.344 0 10.156 1.11 11.695-5.75 15.125-2.072 1.036-3.343 1.902-4.969 2.844-1.606-.598-3.09-1.108-5.125-2.125-3.505-1.753-5.136-4.933-7.906-8.625-2.608-3.479-4.793-6.263-7.187-8.657-3.072-3.071-6.66.081-7.938-5.03-.173-.695-.545-1.318-.844-1.97 5.183 2.052 8.164 3.027 14.062 1.563 3.511-.872 13.303-3.132 15.125-6.75 2.196-4.362 1.08-6.179-1.53-10.5-2.683-4.44-8.517-8.32-9.813-13.47-.904-3.59-4.531-8.006-4.531-12.75 0-5.272 10.788-7.907 9.812-12.75-1.052-5.22-3.447-10.557-2.25-16.5 1.469-7.291 7.539-10.884 12.062-16.5 4.582-5.687 4.845-11.195.781-17.25-5.41-8.057-4.744-1.643-10.594-6-2.646-1.97-5.427-4.944-9.062-6.75-2.808-1.393-7.466-3.385-8.313-6.75-.836-3.32-.557-7.138-2.25-10.5-1.714-3.404-3.463-7.18-2.25-12 1.234-4.9 2.05-6.65 6.782-9 3.473-1.724 6.11-2.288 10.562-4.5 4.345-2.157 6.38-3 11.344-3h12.062c6.5 0 12.519-3 18.875-3h15.875c4.179 0 6.91-.779 9.812-1.5 3.305-.82 5.493-1.618 8.313-3.718 2.678-1.995 5.21-5.225 8.28-6.75 4.381-2.175 7.935-3.768 9.063-8.25.615-2.44 1.822-6.72 2.281-9 .18-.892 2.314-9.697.75-11.25-3.45-3.427-7.459-3.699-12.094-6-4.301-2.136-2.25-3.743-2.25-8.25 0-4.086.762-10.501 3.782-13.5 3.286-3.263 5.334-9.202 10.562-10.5 5.458-1.355 9.627-3.051 15.875-1.5 3.758.933 10.623 1.848 14.344 0 3.14-1.559 9.062-4.406 9.062-9.75 0-3.888-.417-7.803-3.031-9.75-1.387-1.033-9.182-4.994-9.813-7.5-1.225-4.868-5.022-8.984-11.344-12.75-4.145-2.47-7.279-4.062-12.062-5.25-4.6-1.142-10.42-6.75-15.125-6.75-3.82 0-9.091-.924-12.812 0-3.788.94-5.451 2.25-9.812 2.25-4.304 0-7.032-1.5-10.594-1.5-3.908 0-7.236.97-9.813 2.25-2.901 1.44-5.864 2.162-9.062 3.75-2.504 1.244-3.777 3.761-6.031 6-2.281 2.265-3.634 6.073-8.313 3.75-2.17-1.077-6.755-4.14-10.562-2.25-2.554 1.268-7.568 4.521-9.812 6.75-3.681 3.655-5.419 6.241-7.563 10.5-1.822 3.619-5.005 7.925-6.031 12-1.117 4.437-2.743 7.89-5.281 11.25-2.596 3.437-4.133 6.925-8.313 9-2.695 1.338-5.29 4.122-9.812 3-2.527-.627-6.813-3.827-6.813-6.75 0-4.467 1.278-8.014 2.282-12 .67-2.664 4.865-17.652 6.78-15.75 3.987 0 8.073-3.3 11.345-5.25 3.837-2.287 7.34-5.436 12.062-8.25 7.105-4.233 15.81-11.197 21.906-17.25 4.216-4.186 4.753-5.55 3.312-5.562zm40.719 353.22c-.953.907-1.747 1.889-2.281 3 2.63-1.222 3.388-2.22 2.281-3zm-2.281 3c-2.524 1.173-6.694 2.564-13.812 4.344-5.058 1.264-11.04 1.963-5.031 6.469 4.72 3.54 9.244 3.593 15.094 3.593 3.061 0 2.875-8.808 2.875-10.78 0-1.343.352-2.538.875-3.626zm104.62-318.44c-1.9.098-3.81.313-5.438.313-2.651 0-7.524 7.86-8.625 10.062-2.354 4.708-2.906 9.867-2.906 15.125 0 5.272 1.016 8.28 2.188 12.969 1.274 5.097 2.708 9.729 5.03 14.375 3.197 6.392 9.102 12.166 12.939 17.28 3.107 4.144 4.301 6.089 9.375 8.626 4.43 2.215 7.759 2.906 14.406 2.906 7.58 0 19.55-3.406 25.906-7.22 3.794-2.276 8.07-3.675 12.219-5.75 4.085-2.042 5.485-8.063 7.219-11.53 1.953-3.908.023-9.39 2.156-13.656 2.397-4.794.377-8.873-2.156-12.25-2.966-3.954-9.622-7.788-12.97-8.625-2.821-.706-5.862-5.834-8.624-7.906-4.124-3.093-7.31-5.117-10.812-7.22-3.045-1.826-4.912-1.317-7.188-3.593-2.101-2.101-1.217-2.64-5.031-3.594-1.833 1.211-6.836 2.157-11.531 2.157-3.735 0-7.266-1.278-10.781-2.157-1.57-.392-3.475-.41-5.375-.312zm167.28 38.25c-2.105.203-6.58 5.1-7.156 7.406-.835 3.337-1.438 5.94-1.438 9.344 0 3.066-.654 6.76 0 9.375 1.162 4.646 3.264 4.643 0 7.906-2.66 2.66-.162 3.242 4.313 5.031 3.26 1.305 6.032 1.752 7.906 3.625 2.54 2.54 1.938 4.564 5.75 6.47 2.878 1.438 5.107 5.794 6.5 7.187 2.451 2.451 9.098-2.753 10.78-3.594 3.214-1.607 4.79-4.04 7.22-6.469 2.833-2.833 2.127-6.617 1.437-9.375-.924-3.694-4.635-5.911 1.438-2.875 6.278 3.14 4.176-2.428 2.875-5.031-1.878-3.754-4.459-7.85-7.22-11.531-2.62-3.494-3.924-5.46-7.187-7.906-1.875-1.407-8.098-1.845-9.344-2.156-2.685-.672-3.763-3.733-5.78-5.75-2.097-2.096-5.93-1.438-9.345-1.438-.184-.184-.449-.248-.75-.219zm-54.188 11.656c-2.357-.116-4.525.493-6.25 2.219-3.67 3.67-4.643 7.107-8.625 10.094-2.893 2.169-6.869 2.967-9.375 3.594-4.193 1.048-8.616 1.62-12.22.718-4.534-1.133-6.9 1.02-9.374 2.875-3.47 2.602-3.266 4.77-7.188 5.75-3.968.993-.547 4.203-7.187 2.875-.832-.831-7.693 7.693-8.656 8.657-2.744 2.743-5.296 4.576-8.625 7.906-3.357 3.356-4.313 7.218-.72 10.812 2.686 2.685 5.68 7.622 6.47 10.78 1.908 7.636 5.97 13.348 9.375 20.157 3.234 6.468 6.468 5.43 6.468 12.969 0 4.847 1.834 6.26 6.47 7.187 4.334.867 8.99.719 13.687.719 4.534 0 5.031 1.155 5.031 5.75 0 1.93-4.868 6.337-5.75 7.219-2.463 2.463-2.875 3.497-2.875 7.906 0 3.34 8.168 4.803 11.5 6.469 4.078 2.038 8.997-1.06 11.531-3.594 2.797-2.796 3.016-8.14 5.032-11.5 2.257-3.763.928-9.795 2.875-13.688 2.135-4.27 3.907-8.472 5.03-12.969.761-3.041 2.577-4.949 5.782-5.75 4.49-1.123 5.619-.098 8.625 2.156 2.73 2.048 6.759 1.438 10.781 1.438 4.601 0 7.782-1.36 10.812-2.875 3.155-1.578 2.604 9.02 2.156 10.812-1.05 4.204 2.174 7.23 3.594 10.78 1.705 4.264 4.313 3.921 4.313 10.095 0 3.907-5.75.367-5.75 5.75 0 2.455 4.266 4.128 5.03 7.187.883 3.529-5.529 3.127-.718 7.938 3.477 3.476 7.255 2.875 12.25 2.875 6.787 0 3.03-1.231 7.188 4.312 2.25 3 1.828 3.594 7.218 3.594 5.771 0 5.677-1.013 7.188 5.031 1.25 5.003-1.083 6.146-3.594 8.656-2.477 2.477-6.607 2.264-8.656 4.313-2.923 2.923 5.525 8.327 7.219 9.344 5.997 3.598 10.689.81 15.094-3.594 4.502-4.503 7.565-4.263 9.375-11.5 1.278-5.114-3.253-14.065-6.47-17.281-2.6-2.601 2.483-9.96 2.876-11.531 1.034-4.135 1.437-7.794 1.437-12.22 0-4.128 4.74-6.426 7.907-7.218 5.037-1.26 5.75-.66 5.75-6.469 0-5.624-1.44-6.232-4.313-10.062-2.817-3.756-10.848-4.63-14.406-9.375-1.754-2.338 5.086-6.121 5.781-6.468 4.197-2.099-6.741-6.95-7.219-7.188-3.482-1.741-6.167.87-9.343-.719-3.745-1.872-8.35-9.067-10.812-11.53-2.567-2.567-5.202-3.68-7.907-5.032-3.626-1.813-6.566-2.132-9.343-1.437-3.016.753-1.137 9.408-.72 11.5.82 4.096-4.573 7.42-5.78 12.25-.922 3.685-4.143 4.988-7.188 5.75-3.318.83-4.312-9.988-4.312-12.22 0-3.616 4.425-6.006 5.75-8.656 1.483-2.966-.623-8.433-1.438-10.062-.856-1.712-9.95 1.438-11.5 1.438-4.16 0 2.991-10.21 3.594-10.812 3.786-3.787 5.18-3.72 4.312-7.188-.245-.983-13.534-5.673-15.125-6.468-4.897-2.45-5.75-5.322-5.75-10.094 0-3.303.72-7.208.72-10.781 0-5.3.982-7.087-3.595-9.375-2.521-1.261-5.08-2.103-7.437-2.22zm-127.03 9.656c-2.841-.353-5.738 1.6-6.625 3.375-2.103 4.206.54 6.47 2.156 8.625 2.338 3.117 1.858 4.642-1.437 7.938-3.295 0-11.208 9.344-18.72 9.344-4.736 0-10.266 1.54-12.937 2.875-3.606 1.802-4.313 4.069-4.313 7.906 0 1.474 4.321 4.378 5.031 7.219.9 3.602-8.69 2.506-10.094 2.156-3.567-.892-4.171-1.942-7.906-2.875-3.607-.902-5.031 7.53-5.031 10.062 0 4.343 3.594 5.144 3.594 10.094 0 1.357-8.636 4.677-9.344 5.03-4.373 2.188-7.978 5.113-10.094 9.345-2.133 4.265 2.495 7.747 4.312 8.656 5.399 2.7 7.152.651 11.531 5.031 5.049 5.048 6.022 10.59 12.22 13.688 4.58 2.29 8.405 2.156 13.687 2.156 6.779 0 10.148-6.093 13.688-10.812 3.958-5.276.332-9.88-4.343-12.219-7.122-3.56-18.923-6.663-25.906-12.25-3.51-2.808-6.252-4.529-2.157-8.625 4.706-4.705 6.115-7.026 10.812-9.375 3.226-1.613 6.304-2.156 10.781-2.156 6.71 0 8.197-2.616 13.688 2.875 3.905 3.905 5.1 4.378 10.781 7.219 5.666 2.833 6.709-.51 10.812 3.594 3.05 3.05 6.921 4.02 11.5 2.875 4.98-1.245 8.282-9.595 10.812-12.97 3.13-4.171 4.807-8.803 3.594-13.655-1.184-4.736-4.312-3.553-4.312-9.375 0-5.601 1.748-5.75-7.22-5.75-6.71 0-8.624-2.18-8.624-7.906 0-2.864 2.156-6.599 2.156-10.812 0-4.26-6.486-7.682-9.344-10.062-.865-.721-1.803-1.102-2.75-1.22zm232.41 38.594c-1.318-.142-2.475 1.302-3.656 2.188-4.422 1.105.992 13.96 3.593 16.562 7.41 7.41 1.86-1.1 0-5.75-1.689-4.223 4.497-4.03 6.5-5.031 2.43-1.215-4.212-6.369-5.062-7.22-.48-.48-.936-.702-1.375-.75zm-349.56 68.906c-1.389-.189-2.514 1.15-3.188 3.844-.95 3.804 2.156 7.512 2.156 11.5 0 3.982-4.138 7.96-5.03 11.531-1.195 4.779-.906 4.5-3.595 7.188-.848.848-2.394 0-3.593 0-3.147 1.888-1.266 7.251-2.156 10.812-.91 3.64-2.188 4.613-2.188 8.625 0 2.971-1.438 5.807-1.438 9.343 0 4.697-.17 5.44 1.438 8.657 1.79 3.578 3.546 4.253 6.5 6.468 3.02 2.265 7.806 1.847 11.5 0 4.15-2.075 5.545-2.877 9.375-5.75 3.05-2.288 6.283-3.547 9.344-4.312 2.736-.684 7.108-1.59 9.375-2.156 2.327-.582-1.697 5.49 0 7.187 2.942 2.942 7.413-3.1 7.906-3.594 1.64-1.64-5.218-9.03-5.75-10.094-1.392-2.783-7.187-3.578-10.094-5.03-4.882-2.442-6.206-4.05-10.062-7.907-5.358-5.358-2.31-5.632-5.781-6.5-3.985-.996-3.107 1.714-5.031-7.906-1.24-6.202 2.995-9.136 4.312-14.406 1.216-4.862 3.138-7.38.719-12.22-1.69-3.377-3.33-5.092-4.719-5.28zm243.69 23.281c-2.146.537.126 4.905-1.438 6.469l-3.594 3.594c-7.853 7.853-5.48 10.632-1.437 18.719 1.85 3.7 3.317 8.237 4.313 12.219 1.239 4.956 7.043 5.062 11.53 5.062 5.953 0 5.98 2.49 11.5 3.594 6.395 1.279 7.22-7.6 7.22-12.25 0-5.518-.157-9.75 2.156-14.375 4.22-8.44-.558-14.245-5.75-19.438-3.745-3.745-9.433-.165-12.97.719-5.722 1.43-7.523.697-11.53-4.313zM65.51 363.592c-1.505-.752-1.438 9.48-1.438 12.25 0 3.618.65 6.19 1.438 9.344 1.195 4.78 2.385 4.802 5.031 2.156 1.076-1.075 0-9.07 0-10.78 0-4.378-1.738-7.101-2.875-9.376-.626-1.251-1.437-2.394-2.156-3.594z" opacity=".459"/><path fill="#fff" d="M498.93 346.49 326.9 469.38l203.87 19.466-208.44-10.195 104.92 100.33-124.28-69.798 22.667 77.891-43.82-75.356-19.307 46.986 3.043-52.923-35.717 39.247 30.203-48.822-65.43 17.282 65.518-44.945-110.53-6.261 109.36-8.146-140.8-59.268 151.9 51.66-67.848-194.49 100.75 191.87 90.504-184.27-75.93 192.66 181.39-105.81z" opacity=".478"/><path fill="url(#c)" fill-rule="evenodd" d="M187.88 92.906c-5.208.58-10.389 3.211-14.562 5.531-.664-1.898-1.79-3.09-3.156-3.812-69.998 45.92-117.46 123.42-121.97 212.22.003.02-.004.042 0 .062.855 4.791 2.172 9.503 4.187 14 4.864 11.62.325 25.238 7.438 36.062 3.03 4.173-3.209 8.635-1.875 13.812.901 8.279-.45 19.992 8.312 24.406 9.235.803 12.406-10.644 10.344-17.938-1.406-7.789-.473-5.681 1.031.813 2.203 12.117 7.01 27.589 21.031 29.875 5.68 1.861 6.007-6.545 9.5-5.97 5.435 1.76 9.736-1.812 14.844-2.874 7.965-2.63 12.535-13.373 21.75-11.156 3.588 2.697 2.425 8.697 4.188 12.75-1.948 4.393.806 8.452 2.219 12.469-7.802-.067-16.921 6.279-14.344 14.969.999 9.23 8.476 16.75 8.125 26.188 4.138 9.15 15.702 7.619 23.312 11.625 8.441 1.706 12.772-9.301 21.062-7.875 4.165-3.852 6.218-7.71 12.812-4.688 7.624.645 6.689 1.1.469 4.344-5.11 2.58-.762 10.405 2.75 13.062 6.605 3.686 15.987 7.045 23 2.781 6.445-5.268 1.53-16.342 10.219-19.875 8.623-5.26 17.918-9.6 27.969-11.219 9.117-1.514 9.263-13.188 16.719-16.625 5.402-6.837-2.48-13.38-6.438-18.344-4.92-10.086 6.472-17.599 10.969-25.375 5.569-9.887-3.908-25.633-15.344-23.594-5.4 2.225-2.442-6.588-5.187-9.656-4.184-8.667-11.223-16.245-19.125-21.562-5.906-4.214-18.001-2.077-16.906 6.844.214 9.33 6.484 18.738 7.156 27.156-6.509-8.265-18.673-8.662-24.125-18-2.488-4.267-10.015-5.561-6.938-11.688 4.589-9.528 8.714-22.508.281-31.25-1.954-4.132-9.112.316-8.656-5.125-2.604-6.349-9.281-8.755-14.906-11.219-5.23-4.659-14.395-6.68-14.5-14.969-2.19-5.87-6.756-14.769 1-18.531 14.064-9.133 31.286-5.46 46.844-9.156 15.021-1.164 32.314 1.22 44.22-10.22 7.66-5.214 16.376-11.226 17.124-21.468 1.873-7.275 4.416-17.286-3.625-21.938-2.898-3.419-11.538-2.311-9.312-8.75.858-10.867 10.72-21.134 22.094-18.562 7.266 1.296 15.288 1.893 21.969-1.781-.87 10.85 2.631 22.152 6.625 31.594-9.609.318-15.558 13.183-8.219 20.094-5.379 5.923-13.896 9.409-22.094 10.156-8.89.59-18.567 9.015-14.969 18.438-5.62-2.877-14.457-3.15-16.469 4.28-2.686 5.198-2.724 11.823.031 17-8.76 4.113-20.124 10.865-18.188 22.189 2.53 11.136 18.121 8.424 21.72 18.5 9.108 14.94 34.79 16.575 43.28.25 6.316-6.874 4.283-18.95-4.781-22.344-8.282-4.741-18.419-6.305-25.625-12.875 6.746-9.052 22.08-12.968 30.312-3.75 6.365 6.315 16.248 5.663 23.219 11.125 10.607 4.26 20.555-4.757 24.5-13.97 5.302-7.34 8.134-18.672 1.375-26.03.276-3.338-1.626-9.095-2.187-10.406 6.27 1.664 12.896 1.334 19.219.281-6.53 4.829-11.81 14.559-5.563 21.75 7.394 9.706 9.335 22.142 16.625 31.969 5.34 6.243 3.401 17.261 12.125 20.594 4.956 2.97 11.039 1.811 16.531 2.281-6.594 4.833-10.818 16.076-3.25 21.938 8.49 5.715 22.336 9.205 29.312-.656 8.86-11.518 7.064-27.426 14.719-39.656 2.862-5.13 8.391 3.213 13 1.813 3.924 2.266 13.655-4.444 12.969 1.5.288 6.7 2.793 13.375 7.219 18.28-5.228 3.336-6.78 10.691-1.906 15.125 1.653 3.433-2.302 8.346 1.562 11.72 4.628 5.927 12.591 5.238 19.031 6.593 3.39 4.014 7.24 8.176 13.094 7.25 3.379 3.368-6.06 4.947-8.406 7.438-7.43 6.168 1.012 16.058 7.625 18.906 7.819 4.501 17.654 1.799 23.281-4.906 8.598-5.773 13.729-17.592 8-27.125-1.963-4.17-6.122-8.368-2.563-12.906 2.399-5.15 1.365-12.18 4.344-16.5 5.818-1.928 13.466-5.433 11.938-12.938 1.205-10.008-8.878-17.21-15.5-21.25 5.09-3.693 3.992-11.17-1.562-13.781-5.475-6.256-15.848-2.262-20.312-9.688-6.888-7.305-16.652-16.542-27.5-13.062-3.725.46-5.587 8.525-7.22 1.5-1.344-4.053-10.942-2.64-4.78-6.531 5.242-5.515.895-14.231-6.156-15.281-5.024-2.346-13.756-3.005-12.531-10.688.924-8.301 2.279-19.673-6.844-24.062-8.804-4.766-20.725-1.447-24.938 7.844-4.69 6.058-13.117 6.783-20.188 6.437 2.024-7.323 2.575-15.056 3.75-22.53-.743-11.44-11.934-16.959-20.47-22.22-7.071-5.942-14.27-11.955-22.78-15.875-4.45-4.628-10.886-6.651-16.906-3.969-10.687 1.443-23.1-6.106-32.531 1.344-3.5 6.126-5.13-4.724-9.75-5.406-6.952-3.84-8.31-12.534-15.344-16.469-9.654-6.136-20.56-10.173-31.031-14.625-11.36-2.785-22.788 2.807-34.156.625-12.388-.18-24.891 5.485-32.594 15.25-3.238-2.158-14.045-1.008-7.656-5.188 3.72-3.312 8.993-10.3 2.937-13.875-1.496-1.267-3.501-1.256-5.344-1.25zm-23.625 35.656-1.688 2.688c-6.607 10.317-8.493 24.594-19.5 31.406-5.83 3.189-5.67-4.693-4.218-8.22 2.79-5.821 1.961-14.606 9.844-16.25 6.051-1.677 10.315-6.458 15.561-9.624zm340 40.406c-2.206-.097-4.434.076-6.5.25-12.895 5.007-14.117 21.298-12.344 33.031 1.46 4.597-4.4 10.359 1.219 13.75 5.257 4.027 13.326 4.654 16.28 11.219 5.968 3.32 9.903 13.683 18.25 9.563 9.368-3.938 19.677-10.784 20.313-21.875 4.523-1.978 7.126-7.18 3.531-11.281-4.152-10.183-10.685-20.991-20.906-25.656-6-.27-9.24-4.62-13.5-7.657-1.966-.87-4.138-1.246-6.344-1.344zm-168.88 46.531c.372.03.802.474 1.25 1.594 5.382 2.957 5.183 4.254-1.344 2.594-1.552-.602-1.021-4.276.094-4.188zm215.88 13.438a7.524 7.524 0 0 0-2.938.25c-10.395 2.895-10.5 16.418-4.968 23.781 2.555 5.206 9.857 13.373 15.25 7.281 3.076-3.213.701-8.14-.438-11.375 6.622-2.823 6.69-12.374.375-15.594-2.017-2.106-4.462-4.008-7.281-4.344zm-64.656 25.781c.142-.142.182-.067.094.406-1.376 5.942-7.522 11.2-2.313 2.72.568-.219 1.794-2.699 2.219-3.126zm-40 65.25c-.213-.064-.466-.025-.781.156-8.427.29-6.373 11.64-12.47 15.031-7.16 6.78-4.011 17.768.47 25.094 2.212 7.917 5.752 18.497 15.719 18.438 7.966-.453 16.132 7.633 23.375 1.594 9.397-7.257 3.658-20.239 8.343-29.688 4.488-11.372-3.88-25.1-15.406-27.625-6.045-.785-13.726 6.267-17.75-1.406-.573-.352-.86-1.402-1.5-1.594zm-253.81 1.594c-2.05 2.787-4.08 12.007-6.625 9.687.483-3.874 4.448-7.873 6.625-9.687zm28.562 55.719c.335-.183 1.15-.08 2.688.625l.375.937.218.5c-.998 1.746-4.287-1.513-3.281-2.062zm-20.5 10.875c1.428-.09 1.534.493-1.625 3.562l-.094.125c-4.57 7.692-7.042 16.533-6.75 25.5-3.065 6.013-9.756 1.766-11.844-2.687-4.792-4.666-5.734-7.423 1.438-8.281 7.755-1.792 15.316-9.269 12.562-17.72 2.132.357 4.884-.41 6.312-.5z" opacity=".478"/><path fill="url(#c)" fill-rule="evenodd" d="M189.69 82.906c-84.439 45.73-141.84 135.13-141.84 237.84 0 28.66 4.504 56.261 12.781 82.188 4.799 2.391 10.694 2.707 15.344-.031 6.59 11.79 23.422 19.824 35.156 10.312 8.57-3.244 18.278-4.232 25.125-11 4.538-4.367 2.285 7.312-2.344 7.281-9.96 8.767-8.404 23.912-2.25 34.375 3.482 8.542 3.946 19.559 13.25 24.188 8.263 4.612 18.011 7.135 27.344 7.687 7.246-.701 12.424-7.142 19.562-8.062 4.107 13.154 20.14 18.55 32.75 17.312 9.47-.836 15.957-9.029 17.406-17.969 3.231-10.155 15.696-10.522 24.094-14.094 8.771-2.11 15.611-8.192 20.156-15.75 5.355-5.82 11.262-13.316 7.875-21.688-1.326-6.275-11.496-11.878-5.062-18.406 7.847-8.6 13.752-21.297 7.812-32.562-3.424-7.828-10.628-14.552-19.375-15.469-5.245-15.925-18.777-30.133-35.344-33.75-11.404-1.182-22.967 10.133-20.656 21.656-6.206-4.009-.355-9.964-.094-15.312 2.903-12.491-1.47-27.046-13.5-33.062-6.503-5.265-12.288-11.642-20.469-14.406-5.445-2.892-11.389-9.566-9.968-15.844 17.397-6.487 36.575-5.547 54.844-7.688 3.846 1.267 12.434-4.377 10.844 2.72-.804 4.11-6.954 4.952-9.032 8.905-9 9.04-10.478 26.013.72 33.97 7.006 4.85 15.395 8.199 19.968 15.78 16.285 17.145 50.54 11.9 58.312-11.375 3.525-7.386 1.877-16.475-2.844-22.938 10.49 5.055 24.173 9.923 34.375 1.532 6.822-4.096 11.727-10.842 14.906-18.031 7.253 13.324 12.18 27.922 20.625 40.53 2.11 4.324 10.311 4.47 10.156 8.313-1.83 13.453 10.335 24.854 23.156 26 5.094 1.038 8.978-.19 6.25 6.219-1.111 12.532 5.588 24.152 10.438 35.281 7.865 11.001 22.637 12.566 34.938 14.344 13.713 2.082 23.081-11.966 23.688-24.219.47-7.364 2.092-14.799 3.157-21.938 5.854-1.453.717 4.936.53 8.531-1.797 19.206 21.272 33.01 38.157 25.656 16.217-5.906 29.488-24.526 23.594-42.03-2.234-5.128-4.589-10.2-2.281-15.813.943-8.988 12.935-10.14 14.28-19.188 3.965-11.349-2.077-23.48-10.655-30.969 9.143-.537 16.307-10.53 13.906-19.375 7.806-10.736 1.319-26.59-10.438-31.25-3.204-1.934-10.278-.363-4.813-5.375 4.18-7.218 1.206-15.145-2.562-21.719-5.923-12.927-16.95-23.23-30.156-28.375-12.007-10.358-33.62-8.84-41.156 6.188-6.99 10.374-4.457 24.198-5.907 35.312-5.2-3.409-.35-10.518-2.656-15.562-2.299-14.58-18.138-24.577-32.28-20.156-6.607 1.873-12.206 6.23-17 11 3.616-13.655-4.974-27.406-16.782-33.875-14.176-9.764-27.456-22.032-44.28-26.938-9.604.663-19.162.201-28.657-.875-4.468-.96-9.414 1.461-13.156 1.375-9.665-8.448-16.889-20.313-29.625-24.656-13.742-7.276-29.143-13.127-44.938-10.22-13.415 1.306-27.879-.14-39.812 7.344-1.934-6.749-8.62-11.436-15.53-11.875h-.032zm95.062 87.5a8.763 8.763 0 0 1 3.625.188c3.838 1.054 10.026-.415 12.562 1.5-.718 4.593 5.099 10.754 1.625 13.969-5.698 5.108-8.778 13.4-6.813 20.906-6.958 4.776-6.899 1.712-5.406-4.625 1.096-10.285-4.209-21.363-13.875-25.438 1.398-3.343 4.693-5.952 8.281-6.5zM529.222 243c.342-.108.65.308.75 1.781-3.106 3.69-1.777-1.456-.75-1.781zm-74.562 49.188.969.281.531.156c3.62 2.058 9.577-1.877 10.219 3.813 3.822 5.145-.154 10.427.437 15.969-2.294 1.783-8.584 1.756-12.25 1.344-4.468-2.46-7.13-3.36-3.875-9.188 1.276-4.097 1.525-8.749 3.97-12.375z" opacity=".208"/><path fill="url(#d)" fill-rule="evenodd" d="M318.12 50.469c-67.484 0-129.15 24.807-176.53 65.75 10.088-3.986 55.999-24.156 59.938-26.125 35.243-17.621 95.137-24.091 133.88-14.406l11.531 2.875c18.572 4.643 39.578 2.875 59.031 2.875 11.842 0 11.294-6.88 6.844-13.875-29.473-11.037-61.377-17.094-94.688-17.094z" opacity=".652"/><path fill="url(#e)" fill-rule="evenodd" d="M363.01 57.98c-66.686-13.789-131.43 6.282-184.52 50.523 10.58-3.189 59.041-20.371 63.234-22.16 37.528-16.006 97.706-12.289 134.5 8.38 3.646 2.049 7.308 4.095 10.954 6.143 17.64 9.91 38.67 11.873 57.893 15.848 11.702 2.42 12.215-6.752 8.89-16.875-27.433-20.558-58.031-35.053-90.948-41.859z" opacity=".242"/><path fill="#fff" d="m148.8 261.216-3.6-15.073-5.13 17.729 3.817-18.694-11.558 13.952 11.1-15.407-14.043 5.137 13.812-5.68-12.184-4.769 12.428 3.287-6.702-13.377 7.66 11.84.753-16.72-.214 17.462 8.385-16.552-6.177 17.373 12.748-9.913-12.986 9.56 13.502 1.756-13.835.195 10.027 9.838-10.86-8.088 3.057 16.145zM519.076 283.863l6.462 14.086 1.586-18.388-.11 19.078 8.625-15.932-7.893 17.271 12.776-7.77-12.444 8.258 12.879 2.309-12.83-.808 9.175 11.818-9.816-10.125 2.512 16.548-3.185-17.17-5.007 17.866 2.682-18.242-10.578 12.201 10.88-11.902-13.586.903 13.533-2.881-11.748-7.7 12.225 5.821-6.137-15.242zM495.376 389.946l.185 21.05 12.71-21.735-11.203 23.43 20.384-14.674-20.214 16.743 21.017-2.244-20.87 3.035 15.306 10.225-16.113-8.35 5.006 19.813-6.817-18.095-6.346 21.817 5.838-22.969-16.83 19.13 14.043-20.925-20.745 8.961 20.96-8.42-18.08-6.675 19.16 4.209-10.72-16.216 12.425 14.176.905-22.287zM171.754 172.333l3.445-14.854-9.612 15.254 9.19-16.46-12.029 10.223 12.296-11.684-10.24 1.448 10.304-2.007-5.467-7.313 6.16 5.995.977-14.012.162 12.811 6.639-15.353-6.594 16.17 11.108-13.39-10.102 14.674 11.24-6.19-11.25 5.807 7.365 4.826-8.286-3.093 2.31 11.511-3.452-10.083-4.165 15.72z" opacity=".459"/><path d="m179.62 140.522 15.915-19.377-26.713 12.148 26.496-12.513-22.809-1.627 23.712-1.293-5.389-12.325 10.334 10.567 10.877-18.99-9.685 18.952 25.36-16.143-23.052 17.37 25.56-6.28-27.08 7.727 17.473 6.79-19.209-4.489-3.118 16.837-1.181-15.17-17.49 17.816zM376.657 110.289l24.792-3.754-27.981-8.844 28.064 8.427-15.863-16.47 18.487 14.905 4.241-12.766.61 14.768 20.79-6.838-19.878 7.607 29.648 4.968-28.753-2.513 23.197 12.435-25.296-12.376 8.444 16.737-11.273-16.188-13.582 10.427 9.272-12.065-24.92 1.54zM327.346 312.718l-2.495-25.391-17.963 25.722 17.312-25.897-28.38 12.012 26.26-14.963-19.685-7.063 23.544 2.71-7.954-22.12 9.303 21.39 12.038-28.243-8.012 27.907 22.996-20.18-23.197 22.27 27.768-4.605-27.29 7.53 14.663 15.789-17.869-11.888-1.038 25.02zM127.495 431.514l-8.304-23.182 2.877 34.515-3.106-34.334-4.057 26.88 2.598-28.588-7.441 3.774 7.175-10.057-8.797-17.084 8.942 15.653-5.236-33.76 6.223 31.27.147-31.872.427 33.999 6.117-19.397-5.11 21.965 8.707 7.356-8.4-1.863 7.239 24.725zM257.475 154.621a14.251 10.688-22.394 1 1-26.352 10.859 14.251 10.688-22.394 1 1 26.352-10.859zM133.964 231.298a8.144 12.215 18.153 1 1-15.476-5.075 8.144 12.215 18.153 1 1 15.476 5.075zM437.626 226.882a8.653 6.108 29.048 1 1-15.129-8.402 8.653 6.108 29.048 1 1 15.129 8.402zM514.111 197.632a10.179 4.072 49.764 1 1-6.216 5.26 10.179 4.072 49.764 1 1 6.216-5.26zM75.327 307.14a4.072 5.09 0 1 1-8.143 0 4.072 5.09 0 1 1 8.143 0zM291.127 496.47a4.072 5.09 0 1 1-8.143 0 4.072 5.09 0 1 1 8.143 0z" opacity=".164"/><path d="M299.272 496.48a12.215 15.269 0 1 1-24.43 0 12.215 15.269 0 1 1 24.43 0z" opacity=".164"/><d="M350.53 36.821a308.79 308.79 0 1 1-617.57 0 308.79 308.79 0 1 1 617.57 0z" transform="translate(281.58 288.51) scale(.87529)"/></svg>