<svg xmlns="http://www.w3.org/2000/svg" xml:space="preserve" style="enable-background:new 0 0 512 512" viewBox="0 0 512 512"><path d="M241.998 512h-.003c-46.368 0-91.888-12.371-131.635-35.773-38.566-22.706-70.82-55.171-93.27-93.886-5.724-9.871-4.909-22.088 2.077-31.126 7.021-9.083 18.703-12.972 29.755-9.901a228.87 228.87 0 0 0 37.717 7.11c8.425.865 14.555 8.397 13.691 16.823-.863 8.426-8.369 14.556-16.825 13.691a259.686 259.686 0 0 1-36.546-6.422c41.621 67.282 115.754 108.808 195.038 108.809 61.171 0 118.708-23.847 162.015-67.153 43.304-43.305 67.153-100.842 67.153-162.013-.002-79.286-41.526-153.417-108.808-195.038 5.17 20.628 7.788 41.905 7.788 63.345.002 118.768-80.194 222.273-195.021 251.706-8.202 2.106-16.562-2.843-18.663-11.049-2.104-8.205 2.843-16.561 11.049-18.665 101.25-25.952 171.964-117.238 171.962-221.993 0-20.837-2.799-41.488-8.319-61.381-3.069-11.055.817-22.735 9.901-29.755 9.038-6.986 21.255-7.799 31.125-2.077 38.713 22.452 71.18 54.704 93.886 93.27 23.403 39.747 35.772 85.266 35.773 131.637.002 69.364-27.039 134.604-76.139 183.703C376.604 484.96 311.359 512 241.998 512z" style="fill:#4c1b27"/><path d="M235.038 106.995c21.119-5.586 37.502-16.983 43.522-21.582a2.503 2.503 0 0 0 0-3.983c-6.02-4.6-22.404-15.996-43.522-21.582-5.586-21.119-16.983-37.502-21.582-43.522a2.505 2.505 0 0 0-3.985 0c-4.6 6.02-15.996 22.404-21.582 43.522-21.119 5.586-37.502 16.983-43.522 21.582a2.503 2.503 0 0 0 0 3.983c6.02 4.6 22.404 15.996 43.522 21.582 5.586 21.119 16.983 37.502 21.582 43.522a2.505 2.505 0 0 0 3.985 0c4.6-6.02 15.995-22.403 21.582-43.522z" style="fill:#d46366"/><path d="M211.464 166.841c-5.526 0-10.826-2.623-14.181-7.014-4.56-5.966-14.964-20.877-21.685-40.542-19.66-6.719-34.572-17.124-40.545-21.685-4.457-3.409-7.011-8.576-7.011-14.179-.002-5.603 2.552-10.768 7.004-14.174 5.975-4.566 20.892-14.972 40.549-21.689 6.719-19.663 17.125-34.576 21.688-40.546C200.639 2.623 205.94 0 211.464 0c5.524 0 10.825 2.623 14.179 7.015 4.56 5.966 14.966 20.878 21.685 40.542 19.657 6.718 34.572 17.124 40.545 21.685 4.458 3.411 7.012 8.576 7.011 14.179 0 5.603-2.552 10.768-7.004 14.174-5.975 4.566-20.889 14.97-40.549 21.689-6.721 19.667-17.125 34.577-21.688 40.546-3.354 4.389-8.655 7.011-14.179 7.011zm-41.73-83.42c6.221 3.282 13.734 6.541 22.077 8.748a15.33 15.33 0 0 1 10.903 10.905c2.207 8.343 5.466 15.86 8.748 22.079 3.284-6.221 6.541-13.734 8.747-22.077a15.343 15.343 0 0 1 10.905-10.906c8.342-2.207 15.857-5.465 22.079-8.748-6.221-3.284-13.736-6.541-22.077-8.748a15.333 15.333 0 0 1-10.906-10.906c-2.205-8.342-5.465-15.857-8.747-22.077-3.282 6.221-6.541 13.736-8.748 22.079a15.335 15.335 0 0 1-10.905 10.905c-8.342 2.204-15.856 5.462-22.076 8.746z" style="fill:#4c1b27"/><path d="M128.776 248.539c23.795-6.294 42.256-19.136 49.04-24.318a2.82 2.82 0 0 0 0-4.489c-6.784-5.184-25.245-18.024-49.04-24.318-6.294-23.797-19.134-42.258-24.318-49.041a2.82 2.82 0 0 0-4.489 0c-5.184 6.784-18.024 25.245-24.318 49.04-23.795 6.294-42.256 19.136-49.04 24.318a2.82 2.82 0 0 0 0 4.489c6.784 5.184 25.245 18.024 49.04 24.318 6.294 23.795 19.136 42.256 24.318 49.04a2.82 2.82 0 0 0 4.489 0c5.184-6.782 18.024-25.243 24.318-49.039z" style="fill:#d46366"/><path d="M102.214 314.026c-5.704 0-10.961-2.6-14.427-7.133-5.152-6.742-16.987-23.709-24.45-46.041-22.331-7.463-39.299-19.297-46.038-24.446-4.535-3.466-7.136-8.725-7.136-14.43s2.601-10.964 7.138-14.43c6.738-5.149 23.706-16.984 46.037-24.446 7.463-22.332 19.298-39.301 24.447-46.038 3.469-4.537 8.727-7.136 14.431-7.136 5.707 0 10.967 2.603 14.434 7.141 5.146 6.734 16.981 23.705 24.444 46.034 22.332 7.463 39.301 19.297 46.04 24.446 4.537 3.471 7.135 8.728 7.135 14.43s-2.598 10.96-7.13 14.426c-6.742 5.153-23.712 16.989-46.043 24.45-7.461 22.329-19.298 39.299-24.447 46.038-3.467 4.533-8.729 7.135-14.435 7.135zm-51.082-92.05c7.672 4.31 17.423 8.822 28.441 11.736a15.33 15.33 0 0 1 10.903 10.905c2.914 11.018 7.428 20.769 11.737 28.441 4.311-7.672 8.822-17.424 11.734-28.439a15.34 15.34 0 0 1 10.905-10.905c11.02-2.914 20.771-7.426 28.442-11.736-7.672-4.31-17.423-8.822-28.442-11.736a15.335 15.335 0 0 1-10.905-10.905c-2.912-11.017-7.426-20.769-11.734-28.441-4.311 7.672-8.823 17.424-11.737 28.441a15.336 15.336 0 0 1-10.903 10.905c-11.019 2.912-20.77 7.424-28.441 11.734z" style="fill:#4c1b27"/></svg>