<svg xmlns="http://www.w3.org/2000/svg" id="Layer_1" data-name="Layer 1" viewBox="0 0 200 200"><defs><style>.cls-1{fill:#231f20}</style></defs><path d="M100 175.68a75.68 75.68 0 1 1 13-150.23 5 5 0 0 1-.06 9.86 45 45 0 1 0 39.11 76.22A44.7 44.7 0 0 0 164.69 87a5 5 0 0 1 4.91-4.2 5 5 0 0 1 4.92 4.14A75.67 75.67 0 0 1 100 175.68ZM87.52 35.53a65.69 65.69 0 1 0 77 77 56.49 56.49 0 0 1-5.28 6.12A55 55 0 0 1 81.4 40.81a55.41 55.41 0 0 1 6.12-5.28Z" class="cls-1"/><path d="M125 105h-25a5 5 0 0 1-3.54-8.54L112.93 80H100a5 5 0 0 1 0-10h25a5 5 0 0 1 3.54 8.54L112.07 95H125a5 5 0 0 1 0 10ZM170.68 59.32h-25a5 5 0 0 1-3.54-8.53l16.47-16.47h-12.93a5 5 0 0 1 0-10h25a5 5 0 0 1 3.54 8.54l-16.47 16.46h12.93a5 5 0 0 1 0 10Z" class="cls-1"/></svg>