<?xml version="1.0" encoding="UTF-8"?>
<svg viewBox="0 0 456.52191 456.52194" xmlns="http://www.w3.org/2000/svg" xmlns:xlink="http://www.w3.org/1999/xlink">
 <defs>
  <filter id="b">
   <feGaussianBlur stdDeviation=".98401"/>
  </filter>
  <filter id="f">
   <feGaussianBlur stdDeviation="2.48436"/>
  </filter>
  <filter id="k" x="-.26435" y="-.21976" width="1.5287" height="1.4395">
   <feGaussianBlur stdDeviation="3.38782"/>
  </filter>
  <linearGradient id="e">
   <stop stop-color="#ff0" offset="0"/>
   <stop stop-color="#ff0" stop-opacity="0" offset="1"/>
  </linearGradient>
  <linearGradient id="d">
   <stop stop-color="#666" offset="0"/>
   <stop stop-color="#666" stop-opacity="0" offset="1"/>
  </linearGradient>
  <linearGradient id="a" x1="553.93" x2="552.14" y1="20.934" y2="74.505" gradientUnits="userSpaceOnUse">
   <stop stop-color="#f60" offset="0"/>
   <stop stop-color="#f60" stop-opacity="0" offset="1"/>
  </linearGradient>
  <linearGradient id="g" x1="565.69" x2="527.3" y1="50.796" y2="178.58" gradientUnits="userSpaceOnUse">
   <stop stop-color="#fff" offset="0"/>
   <stop stop-color="#fff" stop-opacity="0" offset="1"/>
  </linearGradient>
  <linearGradient id="j" x1="566.07" x2="576.43" y1="130.93" y2="163.79" gradientUnits="userSpaceOnUse" xlink:href="#d"/>
  <linearGradient id="i" x1="506.07" x2="491.07" y1="114.86" y2="147.72" gradientUnits="userSpaceOnUse" xlink:href="#d"/>
  <linearGradient id="h" x1="537.14" x2="511.43" y1="166.65" y2="163.79" gradientUnits="userSpaceOnUse" xlink:href="#e"/>
  <radialGradient id="c" cx="522.91" cy="139.57" r="93.944" gradientTransform="matrix(1.1667 .15591 -.12142 .90859 -60.769 -66.636)" gradientUnits="userSpaceOnUse" xlink:href="#e"/>
 </defs>
 <g transform="matrix(1.4279 0 0 1.4279 -526.56 12.177)">
  <path d="m526.2 66.951s-4.2326-19.765 9.3086-30.297 27.083-10.532 27.083-22.569-5.3571-20.251-5.3571-20.251 19.184 15.657 18.898 29.279c-0.43315 20.684-15.553 21.647-16.041 29.735-0.56226 9.3087 5.3041 21.626 5.3041 21.626z" filter="url(#b)"/>
  <path d="m526.2 66.951s-4.2326-19.765 9.3086-30.297 27.083-10.532 27.083-22.569-5.3571-20.251-5.3571-20.251 19.184 15.657 18.898 29.279c-0.43315 20.684-15.553 21.647-16.041 29.735-0.56226 9.3087 5.3041 21.626 5.3041 21.626z" fill="#ff0"/>
  <path d="m561.03-0.5625c2.1918 6.2857 3.6411 13.389 1.5938 19.875-3.3693 6.9543-11.542 8.89-17.719 12.562-7.4857 3.83-14.806 9.4701-16.913 18.03-1.6177 5.2202-1.7376 10.819-0.86798 16.189l36.5 6.9688c-2.8082-7.0556-5.6456-14.823-4.0756-22.483 2.8249-5.99 9.9241-8.6168 12.543-14.862 4.1876-7.7118 3.9515-17.691-1.1745-24.917-2.8088-4.659-6.4106-8.5986-10.261-12.363l0.375 1z" fill="url(#a)"/>
  <g transform="matrix(-1 0 0 -1 1057.3 302.66)">
   <path d="m526.2 66.951s-4.2326-19.765 9.3086-30.297 27.083-10.532 27.083-22.569-5.3571-20.251-5.3571-20.251 19.184 15.657 18.898 29.279c-0.43315 20.684-15.553 21.647-16.041 29.735-0.56226 9.3087 5.3041 21.626 5.3041 21.626z" filter="url(#b)"/>
   <path d="m526.2 66.951s-4.2326-19.765 9.3086-30.297 27.083-10.532 27.083-22.569-5.3571-20.251-5.3571-20.251 19.184 15.657 18.898 29.279c-0.43315 20.684-15.553 21.647-16.041 29.735-0.56226 9.3087 5.3041 21.626 5.3041 21.626z" fill="#ff0"/>
   <path d="m561.03-0.5625c2.1918 6.2857 3.6411 13.389 1.5938 19.875-3.3693 6.9543-11.542 8.89-17.719 12.562-7.4857 3.83-14.806 9.4701-16.913 18.03-1.6177 5.2202-1.7376 10.819-0.86798 16.189l36.5 6.9688c-2.8082-7.0556-5.6456-14.823-4.0756-22.483 2.8249-5.99 9.9241-8.6168 12.543-14.862 4.1876-7.7118 3.9515-17.691-1.1745-24.917-2.8088-4.659-6.4106-8.5986-10.261-12.363l0.375 1z" fill="url(#a)"/>
  </g>
  <g transform="matrix(.86603 .5 -.5 .86603 146.49 -244.04)">
   <path d="m526.2 66.951s-4.2326-19.765 9.3086-30.297 27.083-10.532 27.083-22.569-5.3571-20.251-5.3571-20.251 19.184 15.657 18.898 29.279c-0.43315 20.684-15.553 21.647-16.041 29.735-0.56226 9.3087 5.3041 21.626 5.3041 21.626z" filter="url(#b)"/>
   <path d="m526.2 66.951s-4.2326-19.765 9.3086-30.297 27.083-10.532 27.083-22.569-5.3571-20.251-5.3571-20.251 19.184 15.657 18.898 29.279c-0.43315 20.684-15.553 21.647-16.041 29.735-0.56226 9.3087 5.3041 21.626 5.3041 21.626z" fill="#ff0"/>
   <path d="m561.03-0.5625c2.1918 6.2857 3.6411 13.389 1.5938 19.875-3.3693 6.9543-11.542 8.89-17.719 12.562-7.4857 3.83-14.806 9.4701-16.913 18.03-1.6177 5.2202-1.7376 10.819-0.86798 16.189l36.5 6.9688c-2.8082-7.0556-5.6456-14.823-4.0756-22.483 2.8249-5.99 9.9241-8.6168 12.543-14.862 4.1876-7.7118 3.9515-17.691-1.1745-24.917-2.8088-4.659-6.4106-8.5986-10.261-12.363l0.375 1z" fill="url(#a)"/>
  </g>
  <g transform="matrix(-.86603 -.5 .5 -.86603 910.77 546.7)">
   <path d="m526.2 66.951s-4.2326-19.765 9.3086-30.297 27.083-10.532 27.083-22.569-5.3571-20.251-5.3571-20.251 19.184 15.657 18.898 29.279c-0.43315 20.684-15.553 21.647-16.041 29.735-0.56226 9.3087 5.3041 21.626 5.3041 21.626z" filter="url(#b)"/>
   <path d="m526.2 66.951s-4.2326-19.765 9.3086-30.297 27.083-10.532 27.083-22.569-5.3571-20.251-5.3571-20.251 19.184 15.657 18.898 29.279c-0.43315 20.684-15.553 21.647-16.041 29.735-0.56226 9.3087 5.3041 21.626 5.3041 21.626z" fill="#ff0"/>
   <path d="m561.03-0.5625c2.1918 6.2857 3.6411 13.389 1.5938 19.875-3.3693 6.9543-11.542 8.89-17.719 12.562-7.4857 3.83-14.806 9.4701-16.913 18.03-1.6177 5.2202-1.7376 10.819-0.86798 16.189l36.5 6.9688c-2.8082-7.0556-5.6456-14.823-4.0756-22.483 2.8249-5.99 9.9241-8.6168 12.543-14.862 4.1876-7.7118 3.9515-17.691-1.1745-24.917-2.8088-4.659-6.4106-8.5986-10.261-12.363l0.375 1z" fill="url(#a)"/>
  </g>
  <g transform="matrix(.5 .86603 -.86603 .5 395.37 -382.14)">
   <path d="m526.2 66.951s-4.2326-19.765 9.3086-30.297 27.083-10.532 27.083-22.569-5.3571-20.251-5.3571-20.251 19.184 15.657 18.898 29.279c-0.43315 20.684-15.553 21.647-16.041 29.735-0.56226 9.3087 5.3041 21.626 5.3041 21.626z" filter="url(#b)"/>
   <path d="m526.2 66.951s-4.2326-19.765 9.3086-30.297 27.083-10.532 27.083-22.569-5.3571-20.251-5.3571-20.251 19.184 15.657 18.898 29.279c-0.43315 20.684-15.553 21.647-16.041 29.735-0.56226 9.3087 5.3041 21.626 5.3041 21.626z" fill="#ff0"/>
   <path d="m561.03-0.5625c2.1918 6.2857 3.6411 13.389 1.5938 19.875-3.3693 6.9543-11.542 8.89-17.719 12.562-7.4857 3.83-14.806 9.4701-16.913 18.03-1.6177 5.2202-1.7376 10.819-0.86798 16.189l36.5 6.9688c-2.8082-7.0556-5.6456-14.823-4.0756-22.483 2.8249-5.99 9.9241-8.6168 12.543-14.862 4.1876-7.7118 3.9515-17.691-1.1745-24.917-2.8088-4.659-6.4106-8.5986-10.261-12.363l0.375 1z" fill="url(#a)"/>
  </g>
  <g transform="matrix(-.5 -.86603 .86603 -.5 661.89 684.8)">
   <path d="m526.2 66.951s-4.2326-19.765 9.3086-30.297 27.083-10.532 27.083-22.569-5.3571-20.251-5.3571-20.251 19.184 15.657 18.898 29.279c-0.43315 20.684-15.553 21.647-16.041 29.735-0.56226 9.3087 5.3041 21.626 5.3041 21.626z" filter="url(#b)"/>
   <path d="m526.2 66.951s-4.2326-19.765 9.3086-30.297 27.083-10.532 27.083-22.569-5.3571-20.251-5.3571-20.251 19.184 15.657 18.898 29.279c-0.43315 20.684-15.553 21.647-16.041 29.735-0.56226 9.3087 5.3041 21.626 5.3041 21.626z" fill="#ff0"/>
   <path d="m561.03-0.5625c2.1918 6.2857 3.6411 13.389 1.5938 19.875-3.3693 6.9543-11.542 8.89-17.719 12.562-7.4857 3.83-14.806 9.4701-16.913 18.03-1.6177 5.2202-1.7376 10.819-0.86798 16.189l36.5 6.9688c-2.8082-7.0556-5.6456-14.823-4.0756-22.483 2.8249-5.99 9.9241-8.6168 12.543-14.862 4.1876-7.7118 3.9515-17.691-1.1745-24.917-2.8088-4.659-6.4106-8.5986-10.261-12.363l0.375 1z" fill="url(#a)"/>
  </g>
  <g transform="matrix(0 1 -1 0 679.96 -377.3)">
   <path d="m526.2 66.951s-4.2326-19.765 9.3086-30.297 27.083-10.532 27.083-22.569-5.3571-20.251-5.3571-20.251 19.184 15.657 18.898 29.279c-0.43315 20.684-15.553 21.647-16.041 29.735-0.56226 9.3087 5.3041 21.626 5.3041 21.626z" filter="url(#b)"/>
   <path d="m526.2 66.951s-4.2326-19.765 9.3086-30.297 27.083-10.532 27.083-22.569-5.3571-20.251-5.3571-20.251 19.184 15.657 18.898 29.279c-0.43315 20.684-15.553 21.647-16.041 29.735-0.56226 9.3087 5.3041 21.626 5.3041 21.626z" fill="#ff0"/>
   <path d="m561.03-0.5625c2.1918 6.2857 3.6411 13.389 1.5938 19.875-3.3693 6.9543-11.542 8.89-17.719 12.562-7.4857 3.83-14.806 9.4701-16.913 18.03-1.6177 5.2202-1.7376 10.819-0.86798 16.189l36.5 6.9688c-2.8082-7.0556-5.6456-14.823-4.0756-22.483 2.8249-5.99 9.9241-8.6168 12.543-14.862 4.1876-7.7118 3.9515-17.691-1.1745-24.917-2.8088-4.659-6.4106-8.5986-10.261-12.363l0.375 1z" fill="url(#a)"/>
  </g>
  <g transform="matrix(0 -1 1 0 377.3 679.96)">
   <path d="m526.2 66.951s-4.2326-19.765 9.3086-30.297 27.083-10.532 27.083-22.569-5.3571-20.251-5.3571-20.251 19.184 15.657 18.898 29.279c-0.43315 20.684-15.553 21.647-16.041 29.735-0.56226 9.3087 5.3041 21.626 5.3041 21.626z" filter="url(#b)"/>
   <path d="m526.2 66.951s-4.2326-19.765 9.3086-30.297 27.083-10.532 27.083-22.569-5.3571-20.251-5.3571-20.251 19.184 15.657 18.898 29.279c-0.43315 20.684-15.553 21.647-16.041 29.735-0.56226 9.3087 5.3041 21.626 5.3041 21.626z" fill="#ff0"/>
   <path d="m561.03-0.5625c2.1918 6.2857 3.6411 13.389 1.5938 19.875-3.3693 6.9543-11.542 8.89-17.719 12.562-7.4857 3.83-14.806 9.4701-16.913 18.03-1.6177 5.2202-1.7376 10.819-0.86798 16.189l36.5 6.9688c-2.8082-7.0556-5.6456-14.823-4.0756-22.483 2.8249-5.99 9.9241-8.6168 12.543-14.862 4.1876-7.7118 3.9515-17.691-1.1745-24.917-2.8088-4.659-6.4106-8.5986-10.261-12.363l0.375 1z" fill="url(#a)"/>
  </g>
  <g transform="matrix(-.5 .86603 -.86603 -.5 924 -230.81)">
   <path d="m526.2 66.951s-4.2326-19.765 9.3086-30.297 27.083-10.532 27.083-22.569-5.3571-20.251-5.3571-20.251 19.184 15.657 18.898 29.279c-0.43315 20.684-15.553 21.647-16.041 29.735-0.56226 9.3087 5.3041 21.626 5.3041 21.626z" filter="url(#b)"/>
   <path d="m526.2 66.951s-4.2326-19.765 9.3086-30.297 27.083-10.532 27.083-22.569-5.3571-20.251-5.3571-20.251 19.184 15.657 18.898 29.279c-0.43315 20.684-15.553 21.647-16.041 29.735-0.56226 9.3087 5.3041 21.626 5.3041 21.626z" fill="#ff0"/>
   <path d="m561.03-0.5625c2.1918 6.2857 3.6411 13.389 1.5938 19.875-3.3693 6.9543-11.542 8.89-17.719 12.562-7.4857 3.83-14.806 9.4701-16.913 18.03-1.6177 5.2202-1.7376 10.819-0.86798 16.189l36.5 6.9688c-2.8082-7.0556-5.6456-14.823-4.0756-22.483 2.8249-5.99 9.9241-8.6168 12.543-14.862 4.1876-7.7118 3.9515-17.691-1.1745-24.917-2.8088-4.659-6.4106-8.5986-10.261-12.363l0.375 1z" fill="url(#a)"/>
  </g>
  <g transform="matrix(.5 -.86603 .86603 .5 133.26 533.47)">
   <path d="m526.2 66.951s-4.2326-19.765 9.3086-30.297 27.083-10.532 27.083-22.569-5.3571-20.251-5.3571-20.251 19.184 15.657 18.898 29.279c-0.43315 20.684-15.553 21.647-16.041 29.735-0.56226 9.3087 5.3041 21.626 5.3041 21.626z" filter="url(#b)"/>
   <path d="m526.2 66.951s-4.2326-19.765 9.3086-30.297 27.083-10.532 27.083-22.569-5.3571-20.251-5.3571-20.251 19.184 15.657 18.898 29.279c-0.43315 20.684-15.553 21.647-16.041 29.735-0.56226 9.3087 5.3041 21.626 5.3041 21.626z" fill="#ff0"/>
   <path d="m561.03-0.5625c2.1918 6.2857 3.6411 13.389 1.5938 19.875-3.3693 6.9543-11.542 8.89-17.719 12.562-7.4857 3.83-14.806 9.4701-16.913 18.03-1.6177 5.2202-1.7376 10.819-0.86798 16.189l36.5 6.9688c-2.8082-7.0556-5.6456-14.823-4.0756-22.483 2.8249-5.99 9.9241-8.6168 12.543-14.862 4.1876-7.7118 3.9515-17.691-1.1745-24.917-2.8088-4.659-6.4106-8.5986-10.261-12.363l0.375 1z" fill="url(#a)"/>
  </g>
  <g transform="matrix(-.86603 .5 -.5 -.86603 1062.1 18.074)">
   <path d="m526.2 66.951s-4.2326-19.765 9.3086-30.297 27.083-10.532 27.083-22.569-5.3571-20.251-5.3571-20.251 19.184 15.657 18.898 29.279c-0.43315 20.684-15.553 21.647-16.041 29.735-0.56226 9.3087 5.3041 21.626 5.3041 21.626z" filter="url(#b)"/>
   <path d="m526.2 66.951s-4.2326-19.765 9.3086-30.297 27.083-10.532 27.083-22.569-5.3571-20.251-5.3571-20.251 19.184 15.657 18.898 29.279c-0.43315 20.684-15.553 21.647-16.041 29.735-0.56226 9.3087 5.3041 21.626 5.3041 21.626z" fill="#ff0"/>
   <path d="m561.03-0.5625c2.1918 6.2857 3.6411 13.389 1.5938 19.875-3.3693 6.9543-11.542 8.89-17.719 12.562-7.4857 3.83-14.806 9.4701-16.913 18.03-1.6177 5.2202-1.7376 10.819-0.86798 16.189l36.5 6.9688c-2.8082-7.0556-5.6456-14.823-4.0756-22.483 2.8249-5.99 9.9241-8.6168 12.543-14.862 4.1876-7.7118 3.9515-17.691-1.1745-24.917-2.8088-4.659-6.4106-8.5986-10.261-12.363l0.375 1z" fill="url(#a)"/>
  </g>
  <g transform="matrix(.86603 -.5 .5 .86603 -4.843 284.59)">
   <path d="m526.2 66.951s-4.2326-19.765 9.3086-30.297 27.083-10.532 27.083-22.569-5.3571-20.251-5.3571-20.251 19.184 15.657 18.898 29.279c-0.43315 20.684-15.553 21.647-16.041 29.735-0.56226 9.3087 5.3041 21.626 5.3041 21.626z" filter="url(#b)"/>
   <path d="m526.2 66.951s-4.2326-19.765 9.3086-30.297 27.083-10.532 27.083-22.569-5.3571-20.251-5.3571-20.251 19.184 15.657 18.898 29.279c-0.43315 20.684-15.553 21.647-16.041 29.735-0.56226 9.3087 5.3041 21.626 5.3041 21.626z" fill="#ff0"/>
   <path d="m561.03-0.5625c2.1918 6.2857 3.6411 13.389 1.5938 19.875-3.3693 6.9543-11.542 8.89-17.719 12.562-7.4857 3.83-14.806 9.4701-16.913 18.03-1.6177 5.2202-1.7376 10.819-0.86798 16.189l36.5 6.9688c-2.8082-7.0556-5.6456-14.823-4.0756-22.483 2.8249-5.99 9.9241-8.6168 12.543-14.862 4.1876-7.7118 3.9515-17.691-1.1745-24.917-2.8088-4.659-6.4106-8.5986-10.261-12.363l0.375 1z" fill="url(#a)"/>
  </g>
  <path transform="matrix(.95251 0 0 .95251 30.44 6.4993)" d="m616.19 152.82a93.944 90.409 0 1 1 -187.89 0 93.944 90.409 0 1 1 187.89 0z" fill="#d45500"/>
  <path d="m525.66 70.906c-35.386 0.4672-69.253 24.93-79.188 59.062-9.3541 31.743 3.4448 68.724 31.008 87.214 27.651 19.941 67.915 21.625 96.648 2.7859 22.961-14.38 38.86-40.662 38.25-68.25-0.02046-28.664-16.717-56.237-41.852-69.616-13.521-7.6549-29.226-11.609-44.867-11.197z" fill="url(#c)" filter="url(#f)"/>
  <path transform="matrix(.95251 0 0 .95251 30.092 4.3035)" d="m616.19 152.82a93.944 90.409 0 1 1 -187.89 0 93.944 90.409 0 1 1 187.89 0z" fill="#d45500"/>
  <path d="m525.66 70.906c-35.386 0.4672-69.253 24.93-79.188 59.062-9.3541 31.743 3.4448 68.724 31.008 87.214 27.651 19.941 67.915 21.625 96.648 2.7859 22.961-14.38 38.86-40.662 38.25-68.25-0.02046-28.664-16.717-56.237-41.852-69.616-13.521-7.6549-29.226-11.609-44.867-11.197z" fill="url(#c)" filter="url(#f)"/>
  <path d="m471.74 102.31 53.033 22.223c-7.8969 15.559-26.227 37.518-41.921 29.8-17.683-3.9285-19.93-30.413-11.112-52.023z" fill="#fff" stroke="#000"/>
  <path d="m535.87 126.33 57.146 6.3808c-3.193 17.154-14.594 43.388-31.827 40.404-18.074 1.213-27.692-23.566-25.319-46.784z" fill="#fff" stroke="#000"/>
  <path d="m524.52 124.54 3.9093 0.24116 4.3465 0.71166 3.1377 0.87359-0.3125 3.3876c-4.1199 0.0183-8.188-0.26116-11.839-2.9412z" stroke="#000"/>
  <path d="m474.32 106.88 45.231 18.954c-6.7351 13.27-22.369 31.998-35.754 25.415-15.082-3.3505-16.998-25.939-9.4769-44.369z" stroke="#000" stroke-width=".85288"/>
  <path d="m539.85 130 48.858 5.4553c-2.73 14.666-12.477 37.095-27.211 34.544-15.452 1.037-23.675-20.148-21.647-39.999z" stroke="#000" stroke-width=".85497"/>
  <path d="m593.21 132.36 21.429-1.4286 1.7857 7.1429-25.357 2.8571z"/>
  <path d="m471.43 102.36-7.5-10.714-4.6428 4.6429 9.6428 13.929z"/>
  <path d="m539.85 130 48.858 5.4553c-2.73 14.666-12.477 37.095-27.211 34.544-15.452 1.037-23.675-20.148-21.647-39.999z" fill="url(#j)" stroke="#000" stroke-width=".85497"/>
  <path d="m474.32 106.88 45.231 18.954c-6.7351 13.27-22.369 31.998-35.754 25.415-15.082-3.3505-16.998-25.939-9.4769-44.369z" fill="url(#i)" stroke="#000" stroke-width=".85288"/>
  <path d="m481.1 187.74s9.3648 18.73 22.944 22.944 23.88 1.873 31.372-0.93649 13.579-9.3648 13.579-9.3648" fill="none" stroke="#000" stroke-linecap="round" stroke-width="2"/>
  <path d="m485.35 185.18s-2.4705-0.4569-4.2499 0.62084-2.6941 2.3154-3.2724 3.2995-0.71245 2.1077-0.71245 2.1077" fill="none" stroke="#000" stroke-linecap="round" stroke-width=".94958"/>
  <path d="m552.23 204.53s0.30423-2.3153-0.86755-3.9171-2.45-2.3932-3.4575-2.8842-2.1264-0.56288-2.1264-0.56288" fill="none" stroke="#000" stroke-linecap="round" stroke-width=".91122"/>
  <path transform="matrix(1 0 0 1.1082 -1.0102 -19.437)" d="m524.14 148.77c0.46039 3.3848-1.8847 6.3142-4.3896 8.2794-2.0787 1.6422-4.256 3.2833-6.8752 3.9325-3.4647 1.0204-7.2151 1.4295-10.266 3.5202-2.6892 1.5077-6.2586 2.1283-7.8499 5.0523-0.94061 1.9721-0.11419 4.2338 0.69034 6.1116 1.3647 2.86 3.5491 5.2002 5.597 7.5776 4.5856 3.3234 10.786 2.9987 15.884 1.1406 1.9369-0.73437 3.9997-1.4602 5.3153-3.1536 1.7739-1.9441 3.5822-4.6627 2.5497-7.386-0.72577-1.3969-14.464 2.4064-14.78 0.78702-1.38-4.6119 12.746-14.286 14.248-18.65 0.39983-2.27 0.88203-4.7384 0.0337-6.9589l-0.15807-0.25253z" fill="#dc7300" filter="url(#k)"/>
  <path d="m526.29 138.85s-4.4194 20.173-14.142 19.447c-11.343-0.84687-22.223 8.5079-21.213 14.585s7.0711 15.8 17.173 15.8 18.183-9.7233 18.183-9.7233v-1.2154" fill="url(#h)" stroke="#000" stroke-width="1.0969"/>
  <path d="m483.41 97.192c1.6477 0.01347 3.2954 0.0099 4.9432 0.0088 4.6873 0.0101 9.376-0.0047 14.062 0.13293 0.80662 0.02369 2.3367 0.55395 3.1842 0.7507 1.4958 0.21469 2.816 0.89115 4.0367 1.7472 0.90169 0.9518 2.0016 1.6423 2.9349 2.5594 0.92339 1.0784 1.8952 2.079 2.6566 3.2889 0.65385 1.443 1.9885 2.1531 3.0956 3.1701 0.73307 0.65421 1.6815 0.83302 2.6142 1.0178l-11.119 1.4576c-0.99011-0.34457-1.9228-0.76017-2.6773-1.5167-1.2263-1.0038-2.343-2.0529-3.1201-3.463-0.79177-1.0884-1.723-2.0553-2.6517-3.0266-0.94924-0.81575-1.9436-1.5882-2.9313-2.3536-1.221-0.68026-2.4974-1.1625-3.887-1.3894-0.54773-0.12797-1.4547-0.34839-2.0015-0.44022-0.36808-0.06182-1.4833-0.13764-1.1102-0.14564 17.521-0.37588 11.765 0.0068 7.972-0.03795-1.6106-9.9e-4 -3.2212-5e-3 -4.8317 0.0088l-11.17-1.7691z" fill="#ff7f2a"/>
  <path d="m541.27093,115.76334c1.76832.0759 3.52002-.0244 5.27376-.2425 5.49432-.61502 11.13984-.97912 16.617-.17303 .26565.0388.54353.0276.79693.11624 .84157.29432 2.34406,1.4877 3.22258,1.99565 1.53219.6475 3.14961,1.18308 4.78167,1.52869 1.78216.28435 3.58843.33626 5.38935.36249 3.89886-.005 9.53412.20479-8.6502-.023-.3903-.005.97951-.0949 2.00344-.43145 1.07541-.29712 2.07866-.78318 3.12775-1.15311l11.1559,1.44438c-1.1031.25204-2.07038.76457-3.13928,1.10178-.44486.15586-.86307.38432-1.31257.52627-4.52145,1.42792-9.52196.22842-14.24927.25767-1.81693-.0695-3.64456-.17602-5.41754-.60902-1.65224-.48482-3.33591-.95918-4.82754-1.84161-1.26243-.75018-2.41566-1.63664-3.95482-1.6494-4.15036-.32862-1.57233-.10133 9.30046-.11443 .33067-.0004-.66098.0221-.99126.0381-.9383.0455-1.87639.11352-2.80866.23094-1.71493.22004-3.41089.51393-5.14801.40443l-11.16969-1.76911z" fill="#ff7f2a"/>
  <path d="m528.59 70.875c-0.97751-0.0082-1.96 0.0055-2.9375 0.03125-22.057 0.29122-43.52 9.9072-58.969 25.375 3.9521 20.078 15.371 38.697 32.5 50.188 27.651 19.941 67.923 21.621 96.656 2.7812 5.4657-3.4231 10.525-7.5272 15.062-12.156-4.5634-23.105-19.562-43.921-40.375-55-12.676-7.1765-27.275-11.096-41.938-11.219z" fill="url(#g)"/>
 </g>
</svg>
