<svg xmlns="http://www.w3.org/2000/svg" xml:space="preserve" style="enable-background:new 0 0 254.916 254.916" viewBox="0 0 254.916 254.916"><path d="M253.126 122.073c-8.609-11.528-22.329-18.411-36.701-18.411-3.147 0-6.257.349-9.294.985a82.395 82.395 0 0 0-7.211-17.379 45.315 45.315 0 0 0 7.274-5.894c10.163-10.163 14.998-24.731 12.933-38.97a8.999 8.999 0 0 0-7.615-7.615c-14.239-2.066-28.807 2.77-38.97 12.933a45.29 45.29 0 0 0-5.883 7.28 82.38 82.38 0 0 0-17.39-7.218c.636-3.037.985-6.148.985-9.294 0-14.373-6.882-28.092-18.411-36.701a9 9 0 0 0-10.77 0c-11.528 8.609-18.411 22.329-18.411 36.701 0 3.147.349 6.257.985 9.294a82.38 82.38 0 0 0-17.39 7.218 45.29 45.29 0 0 0-5.883-7.28c-10.162-10.164-24.729-14.998-38.97-12.933a8.999 8.999 0 0 0-7.615 7.615c-2.064 14.239 2.77 28.807 12.933 38.97a45.322 45.322 0 0 0 7.274 5.895 82.409 82.409 0 0 0-7.211 17.378 45.336 45.336 0 0 0-9.294-.985c-14.373 0-28.092 6.882-36.701 18.411a9 9 0 0 0 0 10.77c8.609 11.528 22.329 18.411 36.701 18.411 3.147 0 6.257-.349 9.294-.985a82.38 82.38 0 0 0 7.218 17.39 45.29 45.29 0 0 0-7.28 5.883c-10.163 10.163-14.998 24.731-12.933 38.97a8.999 8.999 0 0 0 7.615 7.615c2.168.314 4.343.469 6.51.469 12.063 0 23.844-4.787 32.459-13.402a45.29 45.29 0 0 0 5.883-7.28 82.38 82.38 0 0 0 17.39 7.218 45.336 45.336 0 0 0-.985 9.294c0 14.373 6.882 28.092 18.411 36.701a8.991 8.991 0 0 0 5.385 1.789 8.984 8.984 0 0 0 5.385-1.789c11.528-8.609 18.411-22.329 18.411-36.701 0-3.147-.349-6.257-.985-9.294a82.38 82.38 0 0 0 17.39-7.218 45.29 45.29 0 0 0 5.883 7.28c8.616 8.616 20.396 13.402 32.459 13.402 2.166 0 4.343-.154 6.51-.469a8.999 8.999 0 0 0 7.615-7.615c2.064-14.239-2.77-28.807-12.933-38.97a45.29 45.29 0 0 0-7.28-5.883 82.38 82.38 0 0 0 7.218-17.39c3.037.636 6.148.985 9.294.985 14.373 0 28.092-6.882 36.701-18.411a9 9 0 0 0 0-10.77zM44.739 132.537a28.13 28.13 0 0 1-6.248.716c-6.289 0-12.208-2.056-17.012-5.795 4.804-3.739 10.723-5.795 17.012-5.795 2.137 0 4.226.256 6.248.716a83.772 83.772 0 0 0-.171 5.079c0 1.707.068 3.398.171 5.079zm82.719-111.058c3.739 4.804 5.795 10.723 5.795 17.012a28.13 28.13 0 0 1-.716 6.248 83.772 83.772 0 0 0-5.079-.171c-1.707 0-3.398.068-5.079.171a28.078 28.078 0 0 1-.716-6.248c0-6.289 2.056-12.208 5.795-17.012zM52.519 52.52c6.041.752 11.68 3.484 16.127 7.931a28.1 28.1 0 0 1 3.934 4.96 83.69 83.69 0 0 0-7.172 7.172 28.302 28.302 0 0 1-4.958-3.936C56.003 64.2 53.272 58.56 52.519 52.52zm16.129 141.948c-4.448 4.445-10.088 7.176-16.128 7.929.752-6.041 3.484-11.68 7.931-16.127a28.13 28.13 0 0 1 4.959-3.934 83.69 83.69 0 0 0 7.172 7.172 28.137 28.137 0 0 1-3.934 4.96zm58.81 38.969c-3.739-4.804-5.795-10.723-5.795-17.012 0-2.137.256-4.226.716-6.248 1.682.102 3.372.171 5.079.171 1.707 0 3.398-.068 5.079-.171.461 2.023.716 4.111.716 6.248 0 6.289-2.056 12.208-5.795 17.012zm0-41.089c-35.781 0-64.89-29.109-64.89-64.89s29.109-64.89 64.89-64.89 64.89 29.109 64.89 64.89-29.109 64.89-64.89 64.89zm74.939 10.048c-6.041-.752-11.68-3.484-16.127-7.931a28.1 28.1 0 0 1-3.934-4.96 83.69 83.69 0 0 0 7.172-7.172 28.302 28.302 0 0 1 4.958 3.936c4.447 4.447 7.178 10.087 7.931 16.127zm-7.931-133.749a28.13 28.13 0 0 1-4.959 3.934 83.69 83.69 0 0 0-7.172-7.172 28.137 28.137 0 0 1 3.934-4.96c4.447-4.446 10.087-7.177 16.128-7.929-.752 6.041-3.484 11.68-7.931 16.127zm21.96 64.606a28.13 28.13 0 0 1-6.248-.716c.102-1.682.171-3.372.171-5.079 0-1.707-.069-3.398-.171-5.079a28.13 28.13 0 0 1 6.248-.716c6.289 0 12.208 2.056 17.012 5.795-4.804 3.739-10.723 5.795-17.012 5.795z"/><path d="M125.125 83.456c-22.976 0-41.668 18.692-41.668 41.668 0 4.971 4.029 9 9 9s9-4.029 9-9c-.001-13.05 10.617-23.668 23.668-23.668 4.971 0 9-4.029 9-9s-4.029-9-9-9z"/></svg>