<svg xmlns="http://www.w3.org/2000/svg" xmlns:xlink="http://www.w3.org/1999/xlink" viewBox="0 0 456.522 456.522"><defs><linearGradient id="b"><stop offset="0" stop-color="#ff0"/><stop offset="1" stop-color="#ff0" stop-opacity="0"/></linearGradient><linearGradient id="a"><stop offset="0" stop-color="#666"/><stop offset="1" stop-color="#666" stop-opacity="0"/></linearGradient><linearGradient id="d" x1="553.93" x2="552.14" y1="20.934" y2="74.505" gradientUnits="userSpaceOnUse"><stop offset="0" stop-color="#f60"/><stop offset="1" stop-color="#f60" stop-opacity="0"/></linearGradient><linearGradient id="k" x1="565.69" x2="527.3" y1="50.796" y2="178.58" gradientUnits="userSpaceOnUse"><stop offset="0" stop-color="#fff"/><stop offset="1" stop-color="#fff" stop-opacity="0"/></linearGradient><linearGradient xlink:href="#a" id="g" x1="566.07" x2="576.43" y1="130.93" y2="163.79" gradientUnits="userSpaceOnUse"/><linearGradient xlink:href="#a" id="h" x1="506.07" x2="491.07" y1="114.86" y2="147.72" gradientUnits="userSpaceOnUse"/><linearGradient xlink:href="#b" id="j" x1="537.14" x2="511.43" y1="166.65" y2="163.79" gradientUnits="userSpaceOnUse"/><filter id="c"><feGaussianBlur stdDeviation=".984"/></filter><filter id="f"><feGaussianBlur stdDeviation="2.484"/></filter><filter id="i" width="1.529" height="1.44" x="-.264" y="-.22"><feGaussianBlur stdDeviation="3.388"/></filter><radialGradient xlink:href="#b" id="e" cx="522.91" cy="139.57" r="93.944" gradientTransform="matrix(1.1667 .15591 -.12142 .90859 -60.769 -66.636)" gradientUnits="userSpaceOnUse"/></defs><path d="M526.2 66.951s-4.233-19.765 9.309-30.297 27.083-10.532 27.083-22.569-5.358-20.251-5.358-20.251 19.184 15.657 18.898 29.279c-.433 20.684-15.552 21.647-16.04 29.735-.563 9.309 5.304 21.626 5.304 21.626z" filter="url(#c)" transform="translate(-526.56 12.177) scale(1.4279)"/><path fill="#ff0" d="M224.801 107.776s-6.044-28.222 13.292-43.26 38.672-15.04 38.672-32.227-7.65-28.916-7.65-28.916S296.508 25.729 296.1 45.18c-.619 29.535-22.209 30.91-22.905 42.459-.803 13.292 7.573 30.88 7.573 30.88z"/><path fill="url(#d)" d="M561.03-.563c2.192 6.286 3.641 13.39 1.594 19.875-3.37 6.955-11.542 8.89-17.72 12.562-7.485 3.83-14.805 9.47-16.912 18.03-1.618 5.22-1.738 10.82-.868 16.19l36.5 6.968c-2.808-7.055-5.646-14.823-4.076-22.483 2.825-5.99 9.924-8.616 12.543-14.862 4.188-7.711 3.952-17.69-1.174-24.917-2.81-4.659-6.41-8.598-10.261-12.363l.375 1z" transform="translate(-526.56 12.177) scale(1.4279)"/><path d="M526.2 66.951s-4.233-19.765 9.309-30.297 27.083-10.532 27.083-22.569-5.358-20.251-5.358-20.251 19.184 15.657 18.898 29.279c-.433 20.684-15.552 21.647-16.04 29.735-.563 9.309 5.304 21.626 5.304 21.626z" filter="url(#c)" transform="rotate(180 491.58 222.173) scale(1.4279)"/><path fill="#ff0" d="M231.798 348.746s6.043 28.222-13.292 43.261-38.672 15.039-38.672 32.226 7.65 28.917 7.65 28.917-27.393-22.357-26.985-41.808c.619-29.535 22.208-30.91 22.905-42.458.803-13.292-7.574-30.88-7.574-30.88z"/><path fill="url(#d)" d="M561.03-.563c2.192 6.286 3.641 13.39 1.594 19.875-3.37 6.955-11.542 8.89-17.72 12.562-7.485 3.83-14.805 9.47-16.912 18.03-1.618 5.22-1.738 10.82-.868 16.19l36.5 6.968c-2.808-7.055-5.646-14.823-4.076-22.483 2.825-5.99 9.924-8.616 12.543-14.862 4.188-7.711 3.952-17.69-1.174-24.917-2.81-4.659-6.41-8.598-10.261-12.363l.375 1z" transform="rotate(180 491.58 222.173) scale(1.4279)"/><path d="M526.2 66.951s-4.233-19.765 9.309-30.297 27.083-10.532 27.083-22.569-5.358-20.251-5.358-20.251 19.184 15.657 18.898 29.279c-.433 20.684-15.552 21.647-16.04 29.735-.563 9.309 5.304 21.626 5.304 21.626z" filter="url(#c)" transform="scale(1.4279) rotate(30 328.335 -532.527)"/><path fill="#ff0" d="M285.515 122.185s8.877-27.464 33.141-30.82 41.01 6.312 49.604-8.573 7.834-28.867 7.834-28.867 12.545 33.058 2.465 49.699c-15.303 25.268-34.687 15.664-41.065 25.318-7.341 11.11-8.881 30.53-8.881 30.53z"/><path fill="url(#d)" d="M561.03-.563c2.192 6.286 3.641 13.39 1.594 19.875-3.37 6.955-11.542 8.89-17.72 12.562-7.485 3.83-14.805 9.47-16.912 18.03-1.618 5.22-1.738 10.82-.868 16.19l36.5 6.968c-2.808-7.055-5.646-14.823-4.076-22.483 2.825-5.99 9.924-8.616 12.543-14.862 4.188-7.711 3.952-17.69-1.174-24.917-2.81-4.659-6.41-8.598-10.261-12.363l.375 1z" transform="scale(1.4279) rotate(30 328.335 -532.527)"/><path d="M526.2 66.951s-4.233-19.765 9.309-30.297 27.083-10.532 27.083-22.569-5.358-20.251-5.358-20.251 19.184 15.657 18.898 29.279c-.433 20.684-15.552 21.647-16.04 29.735-.563 9.309 5.304 21.626 5.304 21.626z" filter="url(#c)" transform="scale(-1.4279) rotate(30 765.069 -1289.008)"/><path fill="#ff0" d="M171.027 334.338s-8.877 27.463-33.142 30.82-41.01-6.313-49.604 8.572-7.833 28.867-7.833 28.867-12.545-33.058-2.466-49.699c15.303-25.268 34.688-15.664 41.066-25.317 7.341-11.11 8.88-30.53 8.88-30.53z"/><path fill="url(#d)" d="M561.03-.563c2.192 6.286 3.641 13.39 1.594 19.875-3.37 6.955-11.542 8.89-17.72 12.562-7.485 3.83-14.805 9.47-16.912 18.03-1.618 5.22-1.738 10.82-.868 16.19l36.5 6.968c-2.808-7.055-5.646-14.823-4.076-22.483 2.825-5.99 9.924-8.616 12.543-14.862 4.188-7.711 3.952-17.69-1.174-24.917-2.81-4.659-6.41-8.598-10.261-12.363l.375 1z" transform="scale(-1.4279) rotate(30 765.069 -1289.008)"/><path d="M526.2 66.951s-4.233-19.765 9.309-30.297 27.083-10.532 27.083-22.569-5.358-20.251-5.358-20.251 19.184 15.657 18.898 29.279c-.433 20.684-15.552 21.647-16.04 29.735-.563 9.309 5.304 21.626 5.304 21.626z" filter="url(#c)" transform="scale(1.4279) rotate(60 336.858 -163.765)"/><path fill="#ff0" d="M330.877 165.02s21.42-19.345 44.112-10.12 32.36 25.972 47.245 17.378 21.217-21.082 21.217-21.082-5.665 34.901-22.714 44.273c-25.887 14.231-37.873-3.778-48.223 1.393-11.913 5.95-22.956 21.999-22.956 21.999z"/><path fill="url(#d)" d="M561.03-.563c2.192 6.286 3.641 13.39 1.594 19.875-3.37 6.955-11.542 8.89-17.72 12.562-7.485 3.83-14.805 9.47-16.912 18.03-1.618 5.22-1.738 10.82-.868 16.19l36.5 6.968c-2.808-7.055-5.646-14.823-4.076-22.483 2.825-5.99 9.924-8.616 12.543-14.862 4.188-7.711 3.952-17.69-1.174-24.917-2.81-4.659-6.41-8.598-10.261-12.363l.375 1z" transform="scale(1.4279) rotate(60 336.858 -163.765)"/><path d="M526.2 66.951s-4.233-19.765 9.309-30.297 27.083-10.532 27.083-22.569-5.358-20.251-5.358-20.251 19.184 15.657 18.898 29.279c-.433 20.684-15.552 21.647-16.04 29.735-.563 9.309 5.304 21.626 5.304 21.626z" filter="url(#c)" transform="scale(-1.4279) rotate(60 453.874 -600.514)"/><path fill="#ff0" d="M125.664 291.502s-21.42 19.345-44.111 10.12-32.36-25.972-47.245-17.378-21.218 21.083-21.218 21.083 5.665-34.902 22.715-44.273c25.887-14.232 37.872 3.778 48.222-1.393 11.913-5.951 22.956-22 22.956-22z"/><path fill="url(#d)" d="M561.03-.563c2.192 6.286 3.641 13.39 1.594 19.875-3.37 6.955-11.542 8.89-17.72 12.562-7.485 3.83-14.805 9.47-16.912 18.03-1.618 5.22-1.738 10.82-.868 16.19l36.5 6.968c-2.808-7.055-5.646-14.823-4.076-22.483 2.825-5.99 9.924-8.616 12.543-14.862 4.188-7.711 3.952-17.69-1.174-24.917-2.81-4.659-6.41-8.598-10.261-12.363l.375 1z" transform="scale(-1.4279) rotate(60 453.874 -600.514)"/><path d="M526.2 66.951s-4.233-19.765 9.309-30.297 27.083-10.532 27.083-22.569-5.358-20.251-5.358-20.251 19.184 15.657 18.898 29.279c-.433 20.684-15.552 21.647-16.04 29.735-.563 9.309 5.304 21.626 5.304 21.626z" filter="url(#c)" transform="rotate(90 485.462 -41.107) scale(1.4279)"/><path fill="#ff0" d="M348.756 224.791s28.222-6.043 43.26 13.292 15.04 38.672 32.227 38.672 28.916-7.65 28.916-7.65-22.356 27.393-41.807 26.985c-29.535-.619-30.91-22.208-42.459-22.905-13.292-.803-30.88 7.574-30.88 7.574z"/><path fill="url(#d)" d="M561.03-.563c2.192 6.286 3.641 13.39 1.594 19.875-3.37 6.955-11.542 8.89-17.72 12.562-7.485 3.83-14.805 9.47-16.912 18.03-1.618 5.22-1.738 10.82-.868 16.19l36.5 6.968c-2.808-7.055-5.646-14.823-4.076-22.483 2.825-5.99 9.924-8.616 12.543-14.862 4.188-7.711 3.952-17.69-1.174-24.917-2.81-4.659-6.41-8.598-10.261-12.363l.375 1z" transform="rotate(90 485.462 -41.107) scale(1.4279)"/><path d="M526.2 66.951s-4.233-19.765 9.309-30.297 27.083-10.532 27.083-22.569-5.358-20.251-5.358-20.251 19.184 15.657 18.898 29.279c-.433 20.684-15.552 21.647-16.04 29.735-.563 9.309 5.304 21.626 5.304 21.626z" filter="url(#c)" transform="rotate(-90 497.64 485.453) scale(1.4279)"/><path fill="#ff0" d="M107.786 231.73s-28.222 6.045-43.261-13.29-15.039-38.673-32.226-38.673-28.917 7.65-28.917 7.65 22.357-27.393 41.808-26.985c29.534.619 30.91 22.208 42.458 22.905 13.292.803 30.88-7.573 30.88-7.573z"/><path fill="url(#d)" d="M561.03-.563c2.192 6.286 3.641 13.39 1.594 19.875-3.37 6.955-11.542 8.89-17.72 12.562-7.485 3.83-14.805 9.47-16.912 18.03-1.618 5.22-1.738 10.82-.868 16.19l36.5 6.968c-2.808-7.055-5.646-14.823-4.076-22.483 2.825-5.99 9.924-8.616 12.543-14.862 4.188-7.711 3.952-17.69-1.174-24.917-2.81-4.659-6.41-8.598-10.261-12.363l.375 1z" transform="rotate(-90 497.64 485.453) scale(1.4279)"/><path d="M526.2 66.951s-4.233-19.765 9.309-30.297 27.083-10.532 27.083-22.569-5.358-20.251-5.358-20.251 19.184 15.657 18.898 29.279c-.433 20.684-15.552 21.647-16.04 29.735-.563 9.309 5.304 21.626 5.304 21.626z" filter="url(#c)" transform="scale(-1.4279) rotate(-60 -85.116 591.985)"/><path fill="#ff0" d="M334.347 285.505s27.464 8.877 30.82 33.141-6.312 41.01 8.573 49.605 28.867 7.833 28.867 7.833-33.058 12.545-49.699 2.466c-25.269-15.303-15.665-34.688-25.318-41.066-11.11-7.341-30.53-8.88-30.53-8.88z"/><path fill="url(#d)" d="M561.03-.563c2.192 6.286 3.641 13.39 1.594 19.875-3.37 6.955-11.542 8.89-17.72 12.562-7.485 3.83-14.805 9.47-16.912 18.03-1.618 5.22-1.738 10.82-.868 16.19l36.5 6.968c-2.808-7.055-5.646-14.823-4.076-22.483 2.825-5.99 9.924-8.616 12.543-14.862 4.188-7.711 3.952-17.69-1.174-24.917-2.81-4.659-6.41-8.598-10.261-12.363l.375 1z" transform="scale(-1.4279) rotate(-60 -85.116 591.985)"/><path d="M526.2 66.951s-4.233-19.765 9.309-30.297 27.083-10.532 27.083-22.569-5.358-20.251-5.358-20.251 19.184 15.657 18.898 29.279c-.433 20.684-15.552 21.647-16.04 29.735-.563 9.309 5.304 21.626 5.304 21.626z" filter="url(#c)" transform="scale(1.4279) rotate(-60 351.629 474.95)"/><path fill="#ff0" d="M122.194 171.017s-27.463-8.877-30.82-33.141 6.313-41.01-8.572-49.604-28.867-7.834-28.867-7.834 33.058-12.545 49.698-2.466c25.27 15.303 15.665 34.688 25.318 41.066 11.11 7.341 30.53 8.88 30.53 8.88z"/><path fill="url(#d)" d="M561.03-.563c2.192 6.286 3.641 13.39 1.594 19.875-3.37 6.955-11.542 8.89-17.72 12.562-7.485 3.83-14.805 9.47-16.912 18.03-1.618 5.22-1.738 10.82-.868 16.19l36.5 6.968c-2.808-7.055-5.646-14.823-4.076-22.483 2.825-5.99 9.924-8.616 12.543-14.862 4.188-7.711 3.952-17.69-1.174-24.917-2.81-4.659-6.41-8.598-10.261-12.363l.375 1z" transform="scale(1.4279) rotate(-60 351.629 474.95)"/><path d="M526.2 66.951s-4.233-19.765 9.309-30.297 27.083-10.532 27.083-22.569-5.358-20.251-5.358-20.251 19.184 15.657 18.898 29.279c-.433 20.684-15.552 21.647-16.04 29.735-.563 9.309 5.304 21.626 5.304 21.626z" filter="url(#c)" transform="scale(-1.4279) rotate(-30 -396.306 1280.48)"/><path fill="#ff0" d="M291.512 330.873s19.345 21.42 10.12 44.112-25.972 32.36-17.379 47.245 21.083 21.217 21.083 21.217-34.901-5.665-44.273-22.714c-14.232-25.887 3.778-37.873-1.393-48.223-5.95-11.912-21.999-22.956-21.999-22.956z"/><path fill="url(#d)" d="M561.03-.563c2.192 6.286 3.641 13.39 1.594 19.875-3.37 6.955-11.542 8.89-17.72 12.562-7.485 3.83-14.805 9.47-16.912 18.03-1.618 5.22-1.738 10.82-.868 16.19l36.5 6.968c-2.808-7.055-5.646-14.823-4.076-22.483 2.825-5.99 9.924-8.616 12.543-14.862 4.188-7.711 3.952-17.69-1.174-24.917-2.81-4.659-6.41-8.598-10.261-12.363l.375 1z" transform="scale(-1.4279) rotate(-30 -396.306 1280.48)"/><path d="M526.2 66.951s-4.233-19.765 9.309-30.297 27.083-10.532 27.083-22.569-5.358-20.251-5.358-20.251 19.184 15.657 18.898 29.279c-.433 20.684-15.552 21.647-16.04 29.735-.563 9.309 5.304 21.626 5.304 21.626z" filter="url(#c)" transform="scale(1.4279) rotate(-30 360.162 843.721)"/><path fill="#ff0" d="M165.025 125.654s-19.345-21.42-10.119-44.11 25.972-32.36 17.378-47.246S151.2 13.081 151.2 13.081s34.901 5.665 44.273 22.714c14.232 25.887-3.778 37.873 1.393 48.223 5.95 11.912 21.999 22.956 21.999 22.956z"/><path fill="url(#d)" d="M561.03-.563c2.192 6.286 3.641 13.39 1.594 19.875-3.37 6.955-11.542 8.89-17.72 12.562-7.485 3.83-14.805 9.47-16.912 18.03-1.618 5.22-1.738 10.82-.868 16.19l36.5 6.968c-2.808-7.055-5.646-14.823-4.076-22.483 2.825-5.99 9.924-8.616 12.543-14.862 4.188-7.711 3.952-17.69-1.174-24.917-2.81-4.659-6.41-8.598-10.261-12.363l.375 1z" transform="scale(1.4279) rotate(-30 360.162 843.721)"/><path fill="#d45500" d="M354.979 229.306a127.774 122.966 0 1 1-255.548 0 127.774 122.966 0 1 1 255.548 0z"/><path fill="url(#e)" d="M525.66 70.906c-35.386.467-69.253 24.93-79.188 59.062-9.354 31.743 3.445 68.724 31.008 87.214 27.651 19.941 67.915 21.625 96.648 2.786 22.961-14.38 38.86-40.662 38.25-68.25-.02-28.664-16.717-56.237-41.852-69.616-13.521-7.655-29.226-11.61-44.867-11.197z" filter="url(#f)" transform="translate(-526.56 12.177) scale(1.4279)"/><path fill="#d45500" d="M354.482 226.17a127.774 122.966 0 1 1-255.548 0 127.774 122.966 0 1 1 255.548 0z"/><path fill="url(#e)" d="M525.66 70.906c-35.386.467-69.253 24.93-79.188 59.062-9.354 31.743 3.445 68.724 31.008 87.214 27.651 19.941 67.915 21.625 96.648 2.786 22.961-14.38 38.86-40.662 38.25-68.25-.02-28.664-16.717-56.237-41.852-69.616-13.521-7.655-29.226-11.61-44.867-11.197z" filter="url(#f)" transform="translate(-526.56 12.177) scale(1.4279)"/><path fill="#fff" stroke="#000" stroke-width="1.4279" d="m147.038 158.265 75.725 31.733c-11.276 22.216-37.45 53.572-59.859 42.551-25.25-5.61-28.458-43.427-15.866-74.284zM238.609 192.564l81.599 9.11c-4.56 24.495-20.84 61.954-45.446 57.694-25.808 1.732-39.542-33.65-36.153-66.803z"/><path stroke="#000" stroke-width="1.4279" d="m222.402 190.008 5.582.344 6.207 1.016 4.48 1.248-.446 4.837c-5.883.026-11.692-.373-16.905-4.2z"/><path stroke="#000" stroke-width="1.2179986999999999" d="m150.722 164.791 64.585 27.064c-9.617 18.949-31.94 45.69-51.053 36.29-21.536-4.784-24.272-37.038-13.532-63.354z"/><path stroke="#000" stroke-width="1.2208545" d="m244.292 197.804 69.764 7.79c-3.898 20.941-17.816 52.968-38.854 49.325-22.064 1.48-33.806-28.77-30.91-57.115z"/><path d="m320.485 201.174 30.598-2.04 2.55 10.2-36.207 4.079zM146.595 158.337l-10.71-15.299-6.629 6.63 13.77 19.89z"/><path fill="url(#g)" stroke="#000" stroke-width=".855" d="m539.85 130 48.858 5.455c-2.73 14.666-12.477 37.095-27.211 34.544-15.452 1.037-23.675-20.148-21.647-39.999z" transform="translate(-526.56 12.177) scale(1.4279)"/><path fill="url(#h)" stroke="#000" stroke-width=".853" d="m474.32 106.88 45.231 18.954c-6.735 13.27-22.369 31.998-35.754 25.415-15.082-3.35-16.998-25.939-9.477-44.369z" transform="translate(-526.56 12.177) scale(1.4279)"/><path fill="none" stroke="#000" stroke-linecap="round" stroke-width="2.8558" d="M160.403 280.25s13.372 26.746 32.761 32.763 34.099 2.674 44.797-1.338 19.389-13.372 19.389-13.372"/><path fill="none" stroke="#000" stroke-linecap="round" stroke-width="1.3565049999999998" d="M166.471 276.596s-3.527-.653-6.068.886-3.847 3.306-4.673 4.711-1.017 3.01-1.017 3.01"/><path fill="none" stroke="#000" stroke-linecap="round" stroke-width="1.3008169" d="M261.97 304.225s.434-3.306-1.24-5.593-3.498-3.417-4.937-4.118-3.036-.804-3.036-.804"/><path fill="#dc7300" d="M524.14 148.77c.46 3.385-1.885 6.314-4.39 8.28-2.078 1.642-4.256 3.283-6.875 3.932-3.464 1.02-7.215 1.43-10.266 3.52-2.689 1.508-6.258 2.128-7.85 5.052-.94 1.973-.114 4.234.69 6.112 1.365 2.86 3.55 5.2 5.598 7.578 4.585 3.323 10.786 2.998 15.884 1.14 1.937-.734 4-1.46 5.315-3.153 1.774-1.944 3.582-4.663 2.55-7.386-.726-1.397-14.464 2.406-14.78.787-1.38-4.612 12.746-14.286 14.248-18.65.4-2.27.882-4.739.033-6.96l-.158-.252z" filter="url(#i)" transform="matrix(1.4279 0 0 1.5824 -528.002 -15.577)"/><path fill="url(#j)" stroke="#000" stroke-width="1.097" d="M526.29 138.85s-4.42 20.173-14.142 19.447c-11.343-.847-22.223 8.508-21.213 14.585s7.071 15.8 17.173 15.8 18.183-9.723 18.183-9.723v-1.216" transform="translate(-526.56 12.177) scale(1.4279)"/><path fill="#ff7f2a" d="M163.701 150.957c2.353.02 4.706.015 7.059.013 6.693.014 13.388-.007 20.079.19 1.151.034 3.336.79 4.546 1.072 2.136.306 4.021 1.272 5.764 2.495 1.288 1.359 2.858 2.345 4.191 3.654 1.319 1.54 2.706 2.969 3.793 4.696.934 2.06 2.84 3.075 4.42 4.527 1.047.934 2.402 1.19 3.734 1.453l-15.877 2.082c-1.414-.492-2.746-1.086-3.823-2.166-1.751-1.433-3.346-2.931-4.455-4.945-1.131-1.554-2.46-2.935-3.787-4.322-1.355-1.164-2.775-2.267-4.185-3.36-1.744-.972-3.566-1.66-5.55-1.984-.783-.183-2.078-.498-2.859-.629-.525-.088-2.118-.196-1.585-.208 25.018-.537 16.8.01 11.383-.054-2.3-.001-4.6-.007-6.899.013l-15.95-2.527zM246.32 177.475c2.526.109 5.027-.034 7.531-.346 7.846-.878 15.907-1.398 23.728-.247.379.056.776.04 1.138.166 1.201.42 3.347 2.124 4.601 2.85 2.188.924 4.497 1.689 6.828 2.183 2.545.406 5.124.48 7.695.517 5.567-.007 13.614.293-12.351-.033-.558-.007 1.398-.135 2.86-.616 1.536-.424 2.968-1.118 4.466-1.646l15.93 2.062c-1.575.36-2.956 1.092-4.483 1.573-.635.223-1.232.55-1.874.752-6.456 2.039-13.596.326-20.346.368-2.595-.1-5.204-.252-7.736-.87-2.36-.692-4.763-1.37-6.893-2.63-1.803-1.07-3.45-2.336-5.647-2.355-5.927-.469-2.246-.144 13.28-.163.472 0-.944.031-1.416.054-1.34.065-2.679.162-4.01.33-2.449.314-4.87.734-7.351.578l-15.95-2.527z"/><path fill="url(#k)" d="M528.59 70.875c-.978-.008-1.96.005-2.938.031-22.057.291-43.52 9.907-58.969 25.375 3.953 20.078 15.372 38.697 32.5 50.188 27.652 19.941 67.924 21.621 96.657 2.781 5.465-3.423 10.525-7.527 15.062-12.156-4.564-23.105-19.562-43.92-40.375-55-12.676-7.176-27.275-11.096-41.938-11.219z" transform="translate(-526.56 12.177) scale(1.4279)"/></svg>